<?xml version="1.0"?>
<!--Icons from directory ""-->
<svg xmlns="http://www.w3.org/2000/svg" width="300" height="588" viewBox="0 0 300 588"><svg viewBox="0 0 489.773 489.773" width="32" height="32" id="atomic-orbitals" y="0"><g ><path d="M244.886 207.017c-20.927 0-37.87 16.958-37.87 37.87 0 20.944 16.942 37.87 37.87 37.87s37.87-16.94 37.87-37.87c0-20.913-16.959-37.871-37.87-37.87z"/><path d="M489.773 250.299c0-35.909-23.55-69.211-66.396-94.021v-5.498c2.198-26.238-.281-51.391-7.172-72.744-7.299-22.615-19.259-39.849-34.59-49.839-13.656-8.875-29.68-13.375-47.624-13.375-26.266 0-56.236 12.117-89.104 36.019-32.871-23.902-62.842-36.019-89.105-36.019-17.946 0-33.97 4.501-47.63 13.379-15.326 9.986-27.285 27.22-34.583 49.835-6.892 21.354-9.371 46.507-7.173 72.745v5.497C23.55 181.091 0 214.393 0 250.299c0 37.677 25.725 72.209 72.491 97.391a37.398 37.398 0 0 0-.17 1.916c-3.858 53.21 11.138 93.324 42.224 112.956 13.031 8.221 28.149 12.389 44.934 12.389 25.863 0 55.362-10.074 85.409-29.15 30.045 19.074 59.544 29.148 85.407 29.15h.004c16.783 0 31.898-4.168 44.932-12.39 31.086-19.632 46.081-59.736 42.227-112.891a41.589 41.589 0 0 0-.174-1.98c46.764-25.182 72.489-59.714 72.489-97.391zm-217.816-133.67c-15.474-.76-38.67-.76-54.144 0 8.731-8.726 17.808-16.88 27.073-24.319 9.258 7.433 18.335 15.589 27.071 24.319zm69.12 186.547c-12.728 20.373-19.332 27.478-31.32 40.374-1.164 1.254-2.378 2.559-3.651 3.936l-6.005 6.487c-15.686 1.911-31.903 2.88-48.267 2.88h-13.896c-16.358 0-32.572-.969-48.269-2.88l-6.004-6.488c-1.273-1.377-2.489-2.684-3.654-3.938-11.988-12.896-18.591-20.003-31.315-40.368-9.737-15.612-17.849-30.22-24.775-44.61a439.577 439.577 0 0 1 34.817-67.307c9.793-15.595 20.561-30.613 32.008-44.646 31.765-3.694 76.515-3.694 108.28 0 11.446 14.033 22.214 29.052 32.016 44.659a439.322 439.322 0 0 1 34.807 67.294c-6.92 14.382-15.032 28.99-24.772 44.607zm37.826-7.839c3.622 12.382 6.375 24.505 8.205 36.142-13.536 5.826-28.086 10.691-43.407 14.519 7.29-8.831 9.872-12.537 19.241-25.987l1.22-1.751c5.427-7.804 10.285-15.353 14.741-22.923zm-232.834 50.657c-15.334-3.832-29.878-8.693-43.404-14.516 1.831-11.637 4.583-23.759 8.206-36.14 4.455 7.565 9.311 15.115 14.744 22.925l1.235 1.771c9.214 13.228 11.927 17.122 19.219 25.96zm-69.46-27.801c-31.652-19.18-49.023-43.185-49.023-67.894 0-23.358 15.704-46.306 44.353-65.027l.349 2.15c4.227 26.066 11.08 49.926 20.941 72.897-7.449 19.761-13.032 39.204-16.62 57.874zm16.994-176.356c-2.054-41.961 9.563-77.474 29.603-90.478 9.078-5.93 20.038-8.937 32.576-8.937 19.832 0 43.478 9.799 70.318 29.132-17.079 13.903-33.804 30.362-49.773 48.986-30.5 4.41-58.269 11.881-82.678 22.233l-.046-.936zm4.408 29.252c15.669-7.133 33.289-13.001 52.549-17.501a500.16 500.16 0 0 0-15.316 22.83c-9.623 15.314-18.29 30.861-25.818 46.306-5.085-15.323-8.572-30.337-10.623-45.702l-.792-5.933zm62.533 275.513c-11.664.002-22.001-2.786-30.724-8.287-20.377-12.839-31.039-40.529-30.077-78.041 20.053 7.902 41.884 13.938 65.078 17.998l8.576 8.941c14.903 15.535 30.626 29.273 46.789 40.886-21.554 12.118-42.101 18.503-59.642 18.503zm48.325-63.096c10.075.665 19.627.991 29.071.991h13.893c9.445 0 18.998-.326 29.071-.991-11.795 10.826-23.899 20.343-36.017 28.322-12.116-7.976-24.222-17.495-36.018-28.322zm151.084 54.81c-8.722 5.499-19.059 8.286-30.725 8.286-17.541 0-38.087-6.385-59.643-18.503 16.165-11.613 31.887-25.351 46.789-40.886l8.577-8.941c23.198-4.062 45.025-10.097 65.076-17.998.963 37.51-9.698 65.202-30.074 78.042zm31.016-261.294c-2.05 15.363-5.537 30.377-10.622 45.702-7.528-15.448-16.198-30.999-25.824-46.317a500.47 500.47 0 0 0-15.31-22.818c19.255 4.499 36.876 10.368 52.546 17.5l-.79 5.933zm5.201-35.186l-.047.938c-24.423-10.355-52.191-17.825-82.678-22.233-15.966-18.618-32.691-35.08-49.775-48.986 26.843-19.333 50.489-29.132 70.32-29.132 12.539 0 23.501 3.008 32.59 8.945 20.029 12.996 31.644 48.507 29.59 90.468zm16.993 176.357c-3.587-18.67-9.17-38.112-16.62-57.873 9.859-22.967 16.714-46.826 20.94-72.897l.35-2.149c28.653 18.727 44.354 41.672 44.354 65.025 0 24.709-17.371 48.714-49.024 67.894z"/></g></svg><svg viewBox="0 0 508 508" width="32" height="32" id="elevator" y="32"><path d="M493.9 0H14.1C6.3 0 0 6.3 0 14.1v479.8c0 7.8 6.3 14.1 14.1 14.1h479.8c7.8 0 14.1-6.3 14.1-14.1V14.1C508 6.3 501.7 0 493.9 0zm-254 479.8H28.2V28.2h211.7v451.6zm239.9 0H268.1V28.2h211.7v451.6z"/><path d="M192.4 268.3c-5.5-5.5-14.4-5.5-20 0l-24.2 24.2V181.4c0-7.8-6.3-14.1-14.1-14.1s-14.1 6.3-14.1 14.1v111.2l-24.2-24.2c-5.5-5.5-14.4-5.5-20 0-5.5 5.5-5.5 14.4 0 20l48.3 48.2c2.8 2.8 6.4 4.1 10 4.1 3.6 0 7.2-1.4 10-4.1l48.3-48.3c5.5-5.5 5.5-14.4 0-20zM432.3 219.6L384 171.3c-2.8-2.8-6.4-4.1-10-4.1-3.6 0-7.2 1.4-10 4.1l-48.3 48.3c-5.5 5.5-5.5 14.4 0 20 5.5 5.5 14.4 5.5 20 0l24.2-24.2v111.2c0 7.8 6.3 14.1 14.1 14.1s14.1-6.3 14.1-14.1V215.4l24.2 24.2c5.5 5.5 14.4 5.5 20 0 5.5-5.5 5.5-14.4 0-20z"/></svg><svg viewBox="0 0 463.377 463.377" width="32" height="32" id="energy-saving" y="64"><path d="M422.384 270.04l-.127-.031a7.08 7.08 0 0 0-8.52 5.24c-24.043 100.531-125.029 162.536-225.56 138.493a187.162 187.162 0 0 1-125.68-102.053l-14.16 2.96c45.781 101.299 165.012 146.306 266.312 100.526a201.276 201.276 0 0 0 112.848-136.526 7.08 7.08 0 0 0-5.113-8.609zM94.944 283.22a7.082 7.082 0 0 0-1.647-3.372l-27.56-30.72-27.24-30.4a7.08 7.08 0 0 0-12.32 2.16l-12.96 39.24-12.88 39.2a7.08 7.08 0 0 0 8 9.12l40.4-8.48 40.56-8.48a7.079 7.079 0 0 0 5.647-8.268zm-48.887 2.869l-28.44 6 9.04-27.6 9.08-27.56 19.36 21.6 19.36 21.6-28.4 5.96zM463.297 160.409a7.08 7.08 0 0 0-8.36-5.48l-40.4 8.48-40.36 8.28a7.08 7.08 0 0 0-4 11.64l27.56 30.72 27.24 30.4a7.08 7.08 0 0 0 12.32-2.16l12.84-39.24 12.84-39.24a7.042 7.042 0 0 0 .32-3.4zm-26.52 38.48l-9.04 27.56-19.36-21.6-19.36-21.6 28.4-5.96 28.4-5.96-9.04 27.56zM148.825 48.203A201.278 201.278 0 0 0 35.977 184.729a7.08 7.08 0 1 0 13.76 3.28c24.087-100.52 125.1-162.482 225.621-138.395a187.158 187.158 0 0 1 125.619 102.075l14.16-2.96C369.356 47.429 250.125 2.422 148.825 48.203z"/><path d="M305.977 106.969a7.08 7.08 0 0 0-7.08-7.08h-91.56a7.08 7.08 0 0 0-6.72 4.88l-42.6 130.36a7.08 7.08 0 0 0 6.6 9.76h32l-28 109.08a7.08 7.08 0 0 0 12 7.04l118.36-137.68a7.08 7.08 0 0 0-5.32-12h-41.52l52.72-100.48a7.087 7.087 0 0 0 1.12-3.88zm-71.8 108.36a7.08 7.08 0 0 0 6.28 10.32h37.72l-88.72 103.16 22.96-89.12a7.08 7.08 0 0 0-6.84-8.8h-31.2l38.08-116.8h74.72l-53 101.24z"/></svg><svg viewBox="0 0 214.203 214.203" width="32" height="32" id="power-station" y="96"><path d="M162.963 52.164c0 8.208 6.678 14.887 14.887 14.887s14.887-6.678 14.887-14.887-6.678-14.887-14.887-14.887-14.887 6.678-14.887 14.887zm14.887-4.888a4.892 4.892 0 0 1 4.887 4.887c0 2.694-2.192 4.887-4.887 4.887s-4.887-2.192-4.887-4.887a4.893 4.893 0 0 1 4.887-4.887zm19.414 158.849c-.092-.118-9.312-12.152-21.215-42.216-11.823-29.861-9.572-63.782-9.548-64.119a5 5 0 0 0-4.987-5.36h-29.631c-.154-7.598.177-12.354.187-12.489a5.004 5.004 0 0 0-1.32-3.776 4.967 4.967 0 0 0-2.018-1.295c6.548-3.487 11.182-10.111 11.857-17.861 15.479-.901 27.794-13.779 27.794-29.479 0-16.283-13.247-29.53-29.53-29.53s-29.53 13.247-29.53 29.53c0 2.243.249 4.447.741 6.597a22.668 22.668 0 0 0-4.412 2.316 32.872 32.872 0 0 0-15.502-3.857c-18.232 0-33.066 14.833-33.066 33.066 0 3.145.451 6.186 1.275 9.07a5.002 5.002 0 0 0-2.48 1.442 4.999 4.999 0 0 0-1.321 3.774c.029.396 2.779 39.965-11.649 74.827-14.525 35.097-25.785 49.136-25.89 49.265a5.003 5.003 0 0 0 3.864 8.174h172.44a4.997 4.997 0 0 0 4.487-2.808 5.009 5.009 0 0 0-.546-5.271zm-82.301-63.566L94.43 180.773a5.002 5.002 0 0 1-5.624 2.482 5 5 0 0 1-3.78-4.849v-21.109H72.677a5 5 0 0 1-4.586-6.992l17.348-39.937a5 5 0 0 1 9.586 1.993v22.831h15.533a5 5 0 0 1 4.405 7.367zm3.264-73.058l-.61-.037a5.021 5.021 0 0 0-5.088 3.786 23.104 23.104 0 0 1-1.111 3.314h-42.54a22.933 22.933 0 0 1-1.793-8.913c0-12.719 10.347-23.066 23.066-23.066 4.693 0 9.212 1.405 13.068 4.063a5 5 0 0 0 6.323-.531A12.462 12.462 0 0 1 117 44.649a5 5 0 0 0 4.072-7.047 19.357 19.357 0 0 1-1.748-8.072c0-10.769 8.761-19.53 19.53-19.53s19.53 8.761 19.53 19.53c0 11.679-10.294 21.037-22.315 19.329a5 5 0 0 0-5.619 5.873c.152.81.226 1.566.226 2.313-.001 6.868-5.59 12.456-12.449 12.456zm50.028 134.702c-3.415-4.805-12.93-19.393-24.536-47.438-7.555-18.256-10.399-37.8-11.391-52.335h23.988c-.208 11.226.513 38.101 10.435 63.16 7.079 17.878 13.254 29.655 17.361 36.613h-15.857z"/></svg><svg viewBox="0 0 489.229 489.229" width="32" height="32" id="storage" y="128"><path d="M482.807 152.48L249.691 37.786a11.495 11.495 0 0 0-10.154 0L6.423 152.48A11.5 11.5 0 0 0 0 162.799v267.752c0 12.172 9.903 22.075 22.075 22.075h445.078c12.173 0 22.076-9.903 22.076-22.075V162.799c0-4.383-2.491-8.384-6.422-10.319zm-97.693 152.659h-281v-39.507h281v39.507zm-281 23h281v39.508h-281v-39.508zm281-85.506h-281v-41.007h281v41.007zm-281 148.014h281v38.979h-281v-38.979zm362.115 38.979h-58.115v-239.5c0-6.352-5.148-11.5-11.5-11.5h-304c-6.351 0-11.5 5.148-11.5 11.5v239.5H23V169.957L244.614 60.921l221.615 109.036v259.669z"/></svg><svg viewBox="0 0 297 297" width="32" height="32" id="tank" y="160"><path d="M165.333 115a34.03 34.03 0 0 0-1.213-9H297V90H154.369C149.788 85.777 144 82.802 137 81.6V74.034c0-.17.333-.218.329-.386C137.06 64.354 129.753 57 120.396 57H50v27.998C39 90.722 32.166 102.008 32.166 115c0 .129.093.255.094.384a55.55 55.55 0 0 1 6.406-.384h126.667zM264 207.75v-.273c18-2.979 32-18.555 32-37.566v-.332C296 148.406 279.171 131 258 131H38.666C17.495 131 0 148.406 0 169.578v.332c0 19.012 14 34.587 32 37.566v.273c0 5.907 1.762 11.439 4.535 16.201C42.123 233.546 52.679 240 64.583 240h167.5c11.904 0 22.127-6.454 27.715-16.049 2.773-4.762 4.202-10.294 4.202-16.201zm-88.567 15.5c-8.979 0-16.256-7.277-16.256-16.256s7.277-16.256 16.256-16.256 16.26 7.277 16.26 16.256c-.001 8.979-7.281 16.256-16.26 16.256zm-71.256-16.256c0-8.979 7.277-16.256 16.256-16.256s16.26 7.277 16.26 16.256-7.28 16.256-16.26 16.256c-8.979 0-16.256-7.277-16.256-16.256zm-55 0c0-8.979 7.277-16.256 16.256-16.256s16.26 7.277 16.26 16.256-7.28 16.256-16.26 16.256c-8.979 0-16.256-7.277-16.256-16.256zm181.256 16.256c-8.979 0-16.256-7.277-16.256-16.256s7.277-16.256 16.256-16.256 16.26 7.277 16.26 16.256c-.001 8.979-7.281 16.256-16.26 16.256z"/></svg><svg width="32" height="32" viewBox="0 0 446 446" id="technology" y="192"><path d="M439.124 81.16h-68.511V59.424a7.146 7.146 0 0 0-7.146-7.146h-48.999a7.146 7.146 0 0 0-7.146 7.146V81.16H138.947V59.424a7.146 7.146 0 0 0-7.146-7.146H82.802a7.146 7.146 0 0 0-7.146 7.146V81.16H7.146A7.146 7.146 0 0 0 0 88.306v45.614a7.146 7.146 0 0 0 7.146 7.146H439.125a7.147 7.147 0 0 0 7.146-7.146V88.306a7.148 7.148 0 0 0-7.147-7.146zM30.346 384.723c0 5.119 4.149 9.27 9.268 9.27h367.041a9.27 9.27 0 0 0 9.269-9.27V165.404H30.346v219.319zm148.916-94.709l21.716-69.401a2.858 2.858 0 0 1 2.727-2.004h33.864c.914 0 1.771.438 2.311 1.177.538.738.689 1.691.406 2.561l-13.221 40.839h37.217a2.857 2.857 0 1 1 2.403 4.404l-49.719 77.149a2.858 2.858 0 0 1-5.22-2.009l8.028-49.005H181.99a2.859 2.859 0 0 1-2.728-3.711z"/></svg><svg viewBox="0 0 512 512" width="32" height="32" id="tool" y="492"><path d="M329.227 7.924A14.994 14.994 0 0 0 316 0H196a14.997 14.997 0 0 0-12.481 23.321L211 64.541V105c0 19.53 12.578 36.024 30 42.237v53.491l-21.709 10.854c-7.412 3.706-10.415 12.715-6.709 20.127 2.637 5.259 7.925 8.291 13.433 8.291 2.256 0 4.541-.513 6.694-1.582l8.291-4.146v26.455l-21.709 10.854c-7.412 3.706-10.415 12.715-6.709 20.127 2.637 5.259 7.925 8.291 13.433 8.291 2.256 0 4.541-.513 6.694-1.582l8.291-4.146v26.455l-21.709 10.854c-7.412 3.706-10.415 12.715-6.709 20.127 2.637 5.259 7.925 8.291 13.433 8.291 2.256 0 4.541-.513 6.694-1.582L241 354.27V375c0 8.291 6.709 15 15 15s15-6.709 15-15v-35.728l21.709-10.854c7.412-3.706 10.415-12.715 6.709-20.127-3.721-7.397-12.729-10.4-20.127-6.709L271 305.728v-26.455l21.709-10.854c7.412-3.706 10.415-12.715 6.709-20.127-3.721-7.412-12.729-10.4-20.127-6.709L271 245.728v-26.455l21.709-10.854c7.412-3.706 10.415-12.715 6.709-20.127-3.721-7.412-12.729-10.386-20.127-6.709L271 185.728v-38.491c17.422-6.213 30-22.707 30-42.237V64.541l27.48-41.221a15.018 15.018 0 0 0 .747-15.396z"/><path d="M466 300h46v-75c0-8.291-6.709-15-15-15h-54.789l-25.605-25.605A14.99 14.99 0 0 0 406 180h-60c-8.291 0-15 6.709-15 15v75h45c8.291 0 15 6.709 15 15s-6.709 15-15 15h-45v45c0 41.353-33.647 75-75 75s-75-33.647-75-75v-45h-45c-8.291 0-15-6.709-15-15s6.709-15 15-15h45v-75c0-8.291-6.709-15-15-15h-60a14.986 14.986 0 0 0-10.605 4.395L69.789 210H15c-8.291 0-15 6.709-15 15v75h46c8.291 0 15 6.709 15 15s-6.709 15-15 15H0v90h46c8.291 0 15 6.709 15 15s-6.709 15-15 15H0v47c0 8.291 6.709 15 15 15h482c8.291 0 15-6.709 15-15v-47h-46c-8.291 0-15-6.709-15-15s6.709-15 15-15h46v-90h-46c-8.291 0-15-6.709-15-15s6.709-15 15-15zm-360 90H76c-8.291 0-15-6.709-15-15s6.709-15 15-15h30c8.291 0 15 6.709 15 15s-6.709 15-15 15zm330 0h-30c-8.291 0-15-6.709-15-15s6.709-15 15-15h30c8.291 0 15 6.709 15 15s-6.709 15-15 15z"/></svg><svg viewBox="0 0 1489.639 1489.639" width="32" height="32" id="transport" y="524"><g><path d="M1414.637 629.379h-57.796V389.894l-.911-8.199c0-.304-4.353-22.673 6.883-36.54 11.337-13.969 36.54-16.903 55.67-16.903 20.75 0 37.451-16.802 37.451-37.451s-16.701-37.451-37.451-37.451c-52.128 0-90.692 15.284-114.681 45.65-28.544 36.034-24.495 79.356-21.965 94.437V629.48H902.468L733.837 230.677c-31.074-76.117-77.634-131.18-149.905-131.18h-365.4c-72.27 0-131.18 58.808-131.18 131.18v483.625l22.066-22.066c29.151-29.151 68.829-44.435 109.924-43.726 27.43-29.354 66.4-47.067 109.215-47.067h75.003c42.917 0 81.785 17.713 109.316 47.067 41.196-.81 80.671 14.575 109.924 43.828l52.937 52.937c29.758 29.657 44.739 70.044 43.625 110.328 29.252 27.633 47.269 66.805 47.269 108.912v68.728h235.03c-35.629 37.957-57.594 88.769-57.594 144.845 0 116.807 95.045 212.054 212.054 212.054 116.807 0 212.054-95.146 212.054-212.054 0-56.48-22.37-107.596-58.201-145.553 41.804-3.442 104.762-35.224 104.762-74.092l74.902-253.958c-.099-41.603-33.704-75.106-75.001-75.106zM201.224 538.282V273.088c0-47.978 39.071-86.947 86.947-86.947h242.217c47.877 0 78.85 36.439 99.397 86.947L741.53 539.294l-540.306-1.012zm954.798 739.304c-54.861 0-99.599-44.637-99.599-99.498 0-54.962 44.739-99.6 99.599-99.6 54.86 0 99.499 44.637 99.499 99.6.1 54.758-44.638 99.498-99.499 99.498z"/><path d="M632.619 804.488l-47.168-47.168c-26.013-26.114-61.238-39.779-97.98-39.071-24.495-26.114-59.112-41.905-97.373-41.905h-66.703c-38.16 0-72.877 15.79-97.272 41.905-36.54-.709-71.966 12.956-97.98 39.071l-47.269 47.168c-27.025 27.127-40.488 62.857-39.172 98.79C15.891 927.873 0 962.592 0 999.84v66.703c0 37.249 15.891 71.967 41.703 96.664-1.215 35.831 12.146 71.562 39.172 98.689l47.168 47.168c26.013 26.114 61.44 40.184 97.98 39.071 24.495 26.216 59.112 42.006 97.272 42.006h66.703c38.16 0 72.877-15.79 97.373-42.006 36.742 1.215 71.966-12.956 97.98-39.071l47.168-47.168c26.519-26.418 39.779-62.452 38.868-98.284 26.013-24.697 42.107-59.517 42.107-97.069V999.84c0-37.552-16.094-72.27-42.107-96.968 1.011-35.932-12.35-71.865-38.768-98.384zm-275.923 452.044c-123.082 0-223.289-100.207-223.289-223.289s100.206-223.29 223.289-223.29 223.289 100.206 223.289 223.29-100.207 223.289-223.289 223.289z"/><circle cx="356.696" cy="1033.242" r="123.082"/></g></svg><svg viewBox="0 0 448 448" width="32" height="32" id="trolleybus-facing-right" y="556"><path d="M95.721 331.434a8 8 0 0 0-8 8c0 4.241-3.448 7.691-7.687 7.691-4.241 0-7.691-3.45-7.691-7.691 0-4.24 3.45-7.689 7.691-7.689a8 8 0 0 0 0-16c-13.063 0-23.691 10.627-23.691 23.689 0 13.063 10.628 23.691 23.691 23.691 13.061 0 23.687-10.628 23.687-23.691a8 8 0 0 0-8-8zM384.091 331.434a8 8 0 0 0-8 8c0 4.241-3.448 7.691-7.687 7.691-4.241 0-7.691-3.45-7.691-7.691 0-4.24 3.45-7.689 7.691-7.689a8 8 0 0 0 0-16c-13.063 0-23.691 10.627-23.691 23.689 0 13.063 10.628 23.691 23.691 23.691 13.061 0 23.687-10.628 23.687-23.691a8 8 0 0 0-8-8z"/><path d="M416 147.364H312.326c-.164-13.094-10.861-23.697-23.992-23.697h-20.186l-60.782-60.782a8 8 0 0 0-11.313 0 7.999 7.999 0 0 0 0 11.314l49.468 49.468h-25.748L158.99 62.885a8 8 0 0 0-11.313 0 7.999 7.999 0 0 0 0 11.314l49.468 49.468h-36.811c-13.132 0-23.828 10.603-23.992 23.697H32c-17.645 0-32 14.355-32 32v130.812c0 21.896 18.541 32.275 32.48 35.886 3.24 23.354 23.326 41.396 47.558 41.396 20.739 0 38.446-13.221 45.147-31.678h198.066c6.703 18.457 24.414 31.678 45.157 31.678 20.739 0 38.446-13.221 45.147-31.678H440a8 8 0 0 0 8-8V179.364c0-17.645-14.355-32-32-32zm16 111.789h-31.629c-4.5 0-8.162-3.661-8.162-8.162v-63.377H432v71.539zM160.333 139.667h128c4.309 0 7.823 3.427 7.985 7.697H152.349c.161-4.27 3.676-7.697 7.984-7.697zM80.038 371.458c-17.041 0-31.012-13.38-31.97-30.185a8.37 8.37 0 0 0 .162-.893 7.936 7.936 0 0 0-.163-2.773c.949-16.81 14.924-30.197 31.971-30.197 17.653 0 32.015 14.365 32.015 32.021 0 17.66-14.362 32.027-32.015 32.027zm96.545-183.844h87.688v71.539h-87.688v-71.539zm-16 71.539H56.173c-4.5 0-8.162-3.661-8.162-8.162v-63.377h112.572v71.539zm192.046-71.539v63.708c0 4.318-3.513 7.831-7.831 7.831h-64.527v-71.539h72.358zm-88.358 87.539v64.627h-87.688v-64.627h87.688zm104.137 96.305c-17.659 0-32.026-14.367-32.026-32.026 0-17.656 14.367-32.021 32.026-32.021 17.653 0 32.015 14.365 32.015 32.021 0 17.659-14.362 32.026-32.015 32.026zm48.006-31.678c.001-.117.009-.231.009-.348 0-26.479-21.54-48.021-48.015-48.021-26.481 0-48.026 21.542-48.026 48.021 0 .117.008.232.009.348h-40.12v-64.627h64.527c13.141 0 23.831-10.69 23.831-23.831v-71.708a8 8 0 0 0-8-8H40.011a8 8 0 0 0-8 8v71.377c0 13.323 10.839 24.162 24.162 24.162h104.41v64.627h-32.54c.001-.117.009-.231.009-.348 0-26.479-21.54-48.021-48.015-48.021-23.082 0-42.408 16.368-46.991 38.104C25.667 327.005 16 321.55 16 310.176V179.364c0-8.823 7.178-16 16-16h384c6.011 0 11.253 3.336 13.987 8.25h-45.779a8 8 0 0 0-8 8v71.377c0 13.323 10.839 24.162 24.162 24.162H432v8.294h-7.789a8 8 0 0 0 0 16H432v40.333h-15.586z"/></svg>
    <svg  xmlns="http://www.w3.org/2000/svg" width="32" height="32" version="1.1" viewBox="0 0 512 512" y="224" style="enable-background:new 0 0 512 512;" xml:space="preserve">
			<path d="M497,271h-46c0-16.542-13.458-30-30-30h-30c-16.542,0-30,13.458-30,30h-15c-8.271,0-15-6.729-15-15v-15     c16.542,0,30-13.458,30-30v-30c0-16.542-13.458-30-30-30h-24.261l20.11-61H346c24.813,0,45-20.187,45-45S370.813,0,346,0H166     c-24.813,0-45,20.187-45,45s20.187,45,45,45h19.151l20.11,61H181c-16.542,0-30,13.458-30,30v30c0,16.542,13.458,30,30,30v15     c0,8.271-6.729,15-15,15h-15c0-16.542-13.458-30-30-30H91c-16.542,0-30,13.458-30,30H15c-8.284,0-15,6.716-15,15v121     c0,8.284,6.716,15,15,15h46c0,16.542,13.458,30,30,30h30c14.833,0,27.178-10.823,29.573-24.984     c2.055,2.354,3.445,5.219,4.179,7.889C167.238,480.297,208.873,512,256,512c47.128,0,88.762-31.703,101.248-77.096     c0.734-2.669,2.124-5.534,4.179-7.888C363.822,441.177,376.167,452,391,452h30c16.542,0,30-13.458,30-30h46     c8.284,0,15-6.716,15-15V286C512,277.716,505.284,271,497,271z M61,392H30v-91h31V392z M120.999,422.018     c-0.001,0.011-0.001,0.002,0-0.018c0,0,0,0,0,0H91V271h30v151C121,422.042,121,422.034,120.999,422.018z M166,60     c-8.271,0-15-6.729-15-15s6.729-15,15-15h180c8.271,0,15,6.729,15,15s-6.729,15-15,15C338.854,60,173.151,60,166,60z M295.26,90     l-20.11,61h-38.302l-20.109-61H295.26z M181,181c14.953,0,135.297,0,150,0l0.019,29.999c0,0-0.006,0.001-0.019,0.001     c-5.53,0-144.16,0-150,0V181z M361,393.424c-15.496,4.063-28.002,16.525-32.678,33.524C319.406,459.362,289.666,482,256,482     c-33.666,0-63.406-22.638-72.322-55.052c-4.676-16.999-17.182-29.46-32.678-33.523V301h15c24.813,0,45-20.187,45-45v-15h90v15     c0,24.813,20.187,45,45,45h15V393.424z M421,422.018c0,0.01,0,0.002,0-0.018c0,0,0,0,0,0H391V271h30v151     C421,422.04,421,422.033,421,422.018z M482,392h-31v-91h31V392z"/><path d="M421,421.982c0-0.01,0-0.002,0,0.018l0,0c0,0,0,0,0,0c0,0.008,0,0.012,0,0.018c0-0.004,0-0.002,0-0.018     C421,421.96,421,421.967,421,421.982z"/><path d="M120.999,421.982c-0.001-0.011-0.001-0.002,0,0.018l0,0c0,0,0,0,0,0c0,0.008,0,0.012,0,0.018     c0-0.004,0-0.002,0.001-0.018C121,421.959,121,421.966,120.999,421.982z"/>
</svg>
    <svg width="32" height="32" viewBox="0 0 217.794 217.794" y="256">
        <path d="M113.595,133.642l-5.932-13.169c5.655-4.151,10.512-9.315,14.307-15.209l13.507,5.118c2.583,0.979,5.469-0.322,6.447-2.904
	l4.964-13.103c0.47-1.24,0.428-2.616-0.117-3.825c-0.545-1.209-1.547-2.152-2.788-2.622l-13.507-5.118
	c1.064-6.93,0.848-14.014-0.637-20.871l13.169-5.932c1.209-0.545,2.152-1.547,2.622-2.788c0.47-1.24,0.428-2.616-0.117-3.825
	l-5.755-12.775c-1.134-2.518-4.096-3.638-6.612-2.505l-13.169,5.932c-4.151-5.655-9.315-10.512-15.209-14.307l5.118-13.507
	c0.978-2.582-0.322-5.469-2.904-6.447L93.88,0.82c-1.239-0.469-2.615-0.428-3.825,0.117c-1.209,0.545-2.152,1.547-2.622,2.788
	l-5.117,13.506c-6.937-1.07-14.033-0.849-20.872,0.636L55.513,4.699c-0.545-1.209-1.547-2.152-2.788-2.622
	c-1.239-0.469-2.616-0.428-3.825,0.117L36.124,7.949c-2.518,1.134-3.639,4.094-2.505,6.612l5.932,13.169
	c-5.655,4.151-10.512,9.315-14.307,15.209l-13.507-5.118c-1.239-0.469-2.615-0.427-3.825,0.117
	c-1.209,0.545-2.152,1.547-2.622,2.788L0.326,53.828c-0.978,2.582,0.322,5.469,2.904,6.447l13.507,5.118
	c-1.064,6.929-0.848,14.015,0.637,20.871L4.204,92.196c-1.209,0.545-2.152,1.547-2.622,2.788c-0.47,1.24-0.428,2.616,0.117,3.825
	l5.755,12.775c0.544,1.209,1.547,2.152,2.787,2.622c1.241,0.47,2.616,0.429,3.825-0.117l13.169-5.932
	c4.151,5.656,9.314,10.512,15.209,14.307l-5.118,13.507c-0.978,2.582,0.322,5.469,2.904,6.447l13.103,4.964
	c0.571,0.216,1.172,0.324,1.771,0.324c0.701,0,1.402-0.147,2.054-0.441c1.209-0.545,2.152-1.547,2.622-2.788l5.117-13.506
	c6.937,1.069,14.034,0.849,20.872-0.636l5.931,13.168c0.545,1.209,1.547,2.152,2.788,2.622c1.24,0.47,2.617,0.429,3.825-0.117
	l12.775-5.754C113.607,139.12,114.729,136.16,113.595,133.642z M105.309,86.113c-4.963,13.1-17.706,21.901-31.709,21.901
	c-4.096,0-8.135-0.744-12.005-2.21c-8.468-3.208-15.18-9.522-18.899-17.779c-3.719-8.256-4-17.467-0.792-25.935
	c4.963-13.1,17.706-21.901,31.709-21.901c4.096,0,8.135,0.744,12.005,2.21c8.468,3.208,15.18,9.522,18.899,17.778
	C108.237,68.434,108.518,77.645,105.309,86.113z M216.478,154.389c-0.896-0.977-2.145-1.558-3.469-1.615l-9.418-0.404
	c-0.867-4.445-2.433-8.736-4.633-12.697l6.945-6.374c2.035-1.867,2.17-5.03,0.303-7.064l-6.896-7.514
	c-0.896-0.977-2.145-1.558-3.47-1.615c-1.322-0.049-2.618,0.416-3.595,1.312l-6.944,6.374c-3.759-2.531-7.9-4.458-12.254-5.702
	l0.404-9.418c0.118-2.759-2.023-5.091-4.782-5.209l-10.189-0.437c-2.745-0.104-5.091,2.023-5.209,4.781l-0.404,9.418
	c-4.444,0.867-8.735,2.433-12.697,4.632l-6.374-6.945c-0.896-0.977-2.145-1.558-3.469-1.615c-1.324-0.054-2.618,0.416-3.595,1.312
	l-7.514,6.896c-2.035,1.867-2.17,5.03-0.303,7.064l6.374,6.945c-2.531,3.759-4.458,7.899-5.702,12.254l-9.417-0.404
	c-2.747-0.111-5.092,2.022-5.21,4.781l-0.437,10.189c-0.057,1.325,0.415,2.618,1.312,3.595c0.896,0.977,2.145,1.558,3.47,1.615
	l9.417,0.403c0.867,4.445,2.433,8.736,4.632,12.698l-6.944,6.374c-0.977,0.896-1.558,2.145-1.615,3.469
	c-0.057,1.325,0.415,2.618,1.312,3.595l6.896,7.514c0.896,0.977,2.145,1.558,3.47,1.615c1.319,0.053,2.618-0.416,3.595-1.312
	l6.944-6.374c3.759,2.531,7.9,4.458,12.254,5.702l-0.404,9.418c-0.118,2.759,2.022,5.091,4.781,5.209l10.189,0.437
	c0.072,0.003,0.143,0.004,0.214,0.004c1.25,0,2.457-0.468,3.381-1.316c0.977-0.896,1.558-2.145,1.615-3.469l0.404-9.418
	c4.444-0.867,8.735-2.433,12.697-4.632l6.374,6.945c0.896,0.977,2.145,1.558,3.469,1.615c1.33,0.058,2.619-0.416,3.595-1.312
	l7.514-6.896c2.035-1.867,2.17-5.03,0.303-7.064l-6.374-6.945c2.531-3.759,4.458-7.899,5.702-12.254l9.417,0.404
	c2.756,0.106,5.091-2.022,5.21-4.781l0.437-10.189C217.847,156.659,217.375,155.366,216.478,154.389z M160.157,183.953
	c-12.844-0.55-22.846-11.448-22.295-24.292c0.536-12.514,10.759-22.317,23.273-22.317c0.338,0,0.678,0.007,1.019,0.022
	c12.844,0.551,22.846,11.448,22.295,24.292C183.898,174.511,173.106,184.497,160.157,183.953z"/>
    </svg>
    <svg height="32" width="32" viewBox="0 0 485.932 485.932" y="288" >
<g>
	<path d="M372.997,261.44c-1.506-0.163-3.034-0.246-4.541-0.246c-21.399,0-39.271,16.063-41.571,37.361   c-2.479,22.945,14.173,43.632,37.122,46.113c1.507,0.163,3.036,0.246,4.544,0.246c0.001,0,0,0,0.001,0   c21.396,0,39.268-16.061,41.568-37.359C412.599,284.611,395.946,263.924,372.997,261.44z M396.202,306.052   c-1.531,14.175-13.418,24.863-27.65,24.863c-1.007,0-2.03-0.056-3.038-0.164c-15.275-1.652-26.359-15.42-24.708-30.691   c1.531-14.176,13.419-24.865,27.652-24.865c1.006,0,2.028,0.056,3.035,0.164C386.767,277.013,397.851,290.781,396.202,306.052z"/>
	<path d="M131.851,261.19c-4.672,0-9.297,0.783-13.745,2.329c-10.562,3.671-19.062,11.233-23.934,21.295   c-4.873,10.063-5.535,21.421-1.863,31.982c5.848,16.821,21.738,28.123,39.54,28.124c0.001,0,0.001,0,0.001,0   c4.671,0,9.294-0.783,13.742-2.328c10.562-3.672,19.062-11.235,23.934-21.297c4.873-10.063,5.534-21.421,1.863-31.98   C165.544,272.492,149.655,261.19,131.851,261.19z M156.927,315.193c-3.243,6.696-8.9,11.73-15.929,14.174   c-2.966,1.03-6.043,1.553-9.146,1.553h-0.001c-11.849,0-22.425-7.524-26.318-18.722c-2.443-7.027-2.003-14.586,1.24-21.281   c3.243-6.696,8.9-11.73,15.93-14.173c2.966-1.031,6.045-1.554,9.149-1.554c11.849,0,22.424,7.522,26.315,18.721   C160.609,300.939,160.169,308.497,156.927,315.193z"/>
	<path d="M484.435,100.601c-1.327-1.688-3.356-2.674-5.503-2.674H290.036c-3.866,0-7,3.134-7,7l-0.022,18.514H7   c-3.866,0-7,3.134-7,7v23.443c0,2.523,1.358,4.852,3.555,6.094l107.438,60.735c-16.709,4.231-31.897,13.483-43.394,26.775   c-14.845,17.163-22.117,39.078-20.478,61.708c1.64,22.631,11.995,43.269,29.158,58.111c15.431,13.346,35.153,20.695,55.533,20.697   c0.003,0,0.001,0,0.005,0c24.702,0,48.135-10.711,64.283-29.382c7.016-8.111,12.316-17.292,15.808-27.101h76.543   c4.869,13.761,13.235,26.092,24.591,35.878c15.414,13.286,35.097,20.604,55.424,20.605c0.002,0,0.003,0,0.004,0   c24.76,0,48.225-10.749,64.378-29.49c7.275-8.441,12.711-18.03,16.173-28.279h21.788c3.866,0,7-3.134,7-7V215.196   c0-3.866-3.134-7-7-7h-26.773v-65.393h27.391c3.229,0,6.04-2.209,6.802-5.347l7.504-30.877   C486.241,104.493,485.762,102.289,484.435,100.601z M185.511,349.465c-13.489,15.597-33.062,24.541-53.698,24.54   c-17.018-0.001-33.488-6.141-46.376-17.287c-14.335-12.397-22.983-29.632-24.352-48.532c-1.37-18.901,4.704-37.204,17.103-51.539   c13.489-15.596,33.063-24.541,53.702-24.541c17.016,0,33.485,6.139,46.374,17.286c14.334,12.396,22.982,29.633,24.35,48.534   C203.983,316.827,197.909,335.131,185.511,349.465z M422.245,349.374c-13.493,15.654-33.094,24.632-53.777,24.631   c-16.974-0.001-33.412-6.112-46.285-17.209c-14.355-12.371-23.033-29.593-24.435-48.491c-1.401-18.898,4.641-37.211,17.014-51.565   c13.494-15.655,33.097-24.633,53.782-24.633c16.972,0,33.408,6.11,46.282,17.207c14.355,12.371,23.032,29.593,24.434,48.492   C440.66,316.705,434.618,335.019,422.245,349.374z M463.81,222.196v94.039h-11.377c0.987-6.364,1.276-12.883,0.788-19.465   c-1.677-22.63-12.067-43.25-29.255-58.063c-8.669-7.472-18.69-13.056-29.414-16.512H463.81z M383.329,208.196V171.31l46.708-18.906   v55.793H383.329z M465.925,128.804H357.372c-3.866,0-7,3.134-7,7v72.234c-21.413,4.071-40.812,15.238-55.14,31.863   c-7.136,8.277-12.748,17.66-16.7,27.687l-37.337-22.482c-1.531-0.922-3.355-1.223-5.102-0.843l-36.22,7.895   c-3.626-4.826-7.776-9.313-12.451-13.355c-14.657-12.676-33.186-19.93-52.471-20.627L14,149.8V137.44h53.966v26.515   c0,3.866,3.134,7,7,7c3.866,0,7-3.134,7-7V137.44h21.841v44.526c0,3.866,3.134,7,7,7c3.866,0,7-3.134,7-7V137.44h21.841v60.879   c0,3.866,3.134,7,7,7c3.866,0,7-3.134,7-7V137.44h21.841v72.099c0,3.866,3.134,7,7,7c3.866,0,7-3.134,7-7V137.44h21.841v88.794   c0,3.866,3.134,7,7,7s7-3.134,7-7V137.44h21.841v88.794c0,3.866,3.134,7,7,7c3.866,0,7-3.134,7-7V137.44h21.841v75.099   c0,3.866,3.134,7,7,7c3.866,0,7-3.134,7-7l0.022-100.612h172.991L465.925,128.804z"/>
</g>
</svg>
    <svg height="32" width="32" viewBox="0 0 512 512" y="320">
<g>
	<g>
		<g>
			<path d="M503.467,460.8h-25.6c0-4.71-3.814-8.533-8.533-8.533s-8.533,3.823-8.533,8.533h-68.267c0-4.71-3.814-8.533-8.533-8.533     c-4.719,0-8.533,3.823-8.533,8.533H307.2c0-4.71-3.814-8.533-8.533-8.533s-8.533,3.823-8.533,8.533h-68.267     c0-4.71-3.823-8.533-8.533-8.533c-4.71,0-8.533,3.823-8.533,8.533h-68.267c0-4.71-3.823-8.533-8.533-8.533     s-8.533,3.823-8.533,8.533H51.2c0-4.71-3.823-8.533-8.533-8.533c-4.71,0-8.533,3.823-8.533,8.533h-25.6     c-4.71,0-8.533,3.823-8.533,8.533s3.823,8.533,8.533,8.533h494.933c4.719,0,8.533-3.823,8.533-8.533S508.186,460.8,503.467,460.8     z"/>
			<path d="M503.467,273.067c-4.719,0-8.533,3.823-8.533,8.533v8.533h-17.067V128c0-4.71-3.814-8.533-8.533-8.533H42.667     c-4.71,0-8.533,3.823-8.533,8.533v162.133H17.067V281.6c0-4.71-3.823-8.533-8.533-8.533S0,276.89,0,281.6v34.133     c0,4.71,3.823,8.533,8.533,8.533s8.533-3.823,8.533-8.533V307.2h17.067V384c0,4.71,3.823,8.533,8.533,8.533     c4.71,0,8.533-3.823,8.533-8.533v-76.8h384c4.719,0,8.533-3.823,8.533-8.533s-3.814-8.533-8.533-8.533h-384v-68.267h384     c4.719,0,8.533-3.823,8.533-8.533s-3.814-8.533-8.533-8.533h-384v-68.267h409.6v213.333c0,11.435-7.586,21.026-17.946,24.303     c-4.71-28.262-29.278-49.903-58.854-49.903c-32.93,0-59.733,26.795-59.733,59.733S351.07,443.733,384,443.733     c30.31,0,55.364-22.716,59.179-52.011c19.712-3.746,34.688-21.06,34.688-41.856V307.2h17.067v8.533     c0,4.71,3.814,8.533,8.533,8.533c4.719,0,8.533-3.823,8.533-8.533V281.6C512,276.89,508.186,273.067,503.467,273.067z      M384,426.667c-23.526,0-42.667-19.14-42.667-42.667s19.14-42.667,42.667-42.667c23.526,0,42.667,19.14,42.667,42.667     S407.526,426.667,384,426.667z"/>
			<path d="M72.977,101.487c4.198,2.116,9.336,0.41,11.452-3.789c2.825-5.606,7.688-11.75,9.438-12.365     c4.429,0,15.616,4.557,21.786,7.637c2.731,1.357,5.999,1.161,8.55-0.538l25.114-16.742c4.301-2.022,12.629-4.087,15.317-1.391     c1.826,1.826,8.55,7.253,18.56,0.717c3.814-2.483,7.612-6.289,11.639-10.317c5.7-5.692,13.5-13.5,18.5-13.5     c15.454,0,34.133,7.612,34.133,17.067c0,12.723,5.325,19.234,9.788,22.451c10.812,7.791,25.404,3.26,27.042,2.714     c0.717-0.239,1.399-0.58,2.031-0.99c8.926-5.939,20.651-10.598,23.373-9.609c9.404,9.404,27.068,18.295,27.819,18.671     c1.195,0.597,2.509,0.896,3.814,0.896c1.109,0,2.219-0.213,3.268-0.648c2.278-0.947,4.045-2.842,4.821-5.188     c1.391-4.173,8.439-19.763,17.51-19.763c9.387,0,22.263,14.694,27.042,21.811c1.417,2.116,3.712,3.499,6.255,3.746     c2.543,0.273,5.069-0.648,6.869-2.458l11.034-11.034L429.167,99.9c3.337,3.337,8.73,3.337,12.066,0s3.337-8.73,0-12.066     l-17.067-17.067c-3.337-3.337-8.73-3.337-12.066,0l-10.18,10.18c-7.441-8.772-20.557-21.214-34.987-21.214     c-15.206,0-24.738,12.826-29.67,22.17c-5.325-3.149-11.665-7.305-15.497-11.136c-11.921-11.938-35.26,1.22-43.776,6.733     c-2.654,0.64-8.047,1.323-10.761-0.623c-2.227-1.613-2.697-5.572-2.697-8.61c0-23.279-30.549-34.133-51.2-34.133     c-12.066,0-21.897,9.83-30.566,18.5c-2.5,2.492-5.999,5.999-8.269,7.68c-12.604-9.515-31.061-0.768-33.246,0.324     c-0.316,0.154-0.623,0.333-0.922,0.529L118.75,75.554c-6.366-2.876-17.365-7.287-24.883-7.287     c-12.817,0-22.144,16.674-24.704,21.786C67.063,94.259,68.77,99.379,72.977,101.487z"/>
			<path d="M187.051,392.533h111.616c4.719,0,8.533-3.823,8.533-8.533s-3.814-8.533-8.533-8.533H187.051     c-4.156-28.902-29.022-51.2-59.051-51.2c-32.939,0-59.733,26.795-59.733,59.733S95.061,443.733,128,443.733     C158.029,443.733,182.895,421.436,187.051,392.533z M85.333,384c0-23.526,19.14-42.667,42.667-42.667     c23.526,0,42.667,19.14,42.667,42.667s-19.14,42.667-42.667,42.667C104.474,426.667,85.333,407.526,85.333,384z"/>
			<path d="M384,358.4c-14.114,0-25.6,11.486-25.6,25.6s11.486,25.6,25.6,25.6s25.6-11.486,25.6-25.6S398.114,358.4,384,358.4z      M384,392.533c-4.71,0-8.533-3.831-8.533-8.533s3.823-8.533,8.533-8.533s8.533,3.831,8.533,8.533S388.71,392.533,384,392.533z"/>
			<path d="M153.6,384c0-14.114-11.486-25.6-25.6-25.6s-25.6,11.486-25.6,25.6s11.486,25.6,25.6,25.6S153.6,398.114,153.6,384z      M119.467,384c0-4.702,3.831-8.533,8.533-8.533s8.533,3.831,8.533,8.533s-3.831,8.533-8.533,8.533S119.467,388.702,119.467,384z"/>
		</g>
	</g>
</g>
</svg>
	<svg width="32" height="32" viewBox="0 0 491 491" y="352">
<g>
	<g>
		<path  d="M348.5,377l-1-2c0-0.667,0.167-1,0.5-1s0.5-0.333,0.5-1c10.667-4,20.333-9.333,29-16    s14.667-16.333,18-29l0.5-3.5c0.333-2.333,0.833-4.5,1.5-6.5V57c0-6.667-1.833-13.333-5.5-20c-3.67-6.667-8.336-12.667-14-18    c-5.667-5.333-12-9.833-19-13.5S345.5,0,339.5,0h-187c-6,0-12.5,1.667-19.5,5s-13.333,7.667-19,13s-10.334,11.333-14,18    c-3.667,6.667-5.5,13-5.5,19v265c0,4.667,1,9.333,3,14s4.667,9.167,8,13.5s7,8.333,11,12s8,6.5,12,8.5    c2,0.667,5.167,1.834,9.5,3.5c4.333,1.667,6.5,2.834,6.5,3.5l-77,116h45l56-81h154l56,81h45L348.5,377z M201.5,23    c0-2,0.833-4,2.5-6s3.5-3,5.5-3h72c0.667,0,2,0.667,4,2s3,2.667,3,4v28c0,2-0.833,3.667-2.5,5s-3.167,2-4.5,2h-72    c-1.333-0.667-2.333-1.333-3-2c-1.333-0.667-2.333-1.667-3-3c-1.333-1.337-2-2.67-2-4V23z M129.5,99c0-3.333,0.667-7,2-11    c2-3.339,4.333-6.673,7-10c2-2.667,4.833-5,8.5-7s7.5-3,11.5-3h174c2.667,0,6,1,10,3c2.667,1.333,5.667,3.333,9,6    c2.667,2,4.667,4.667,6,8c2,2.667,3,6,3,10v59c0,3.333-1,6.5-3,9.5s-4.333,5.833-7,8.5c-3.333,2.667-6.667,4.667-10,6    c-2.667,1.333-6,2-10,2h-171c-0.667,0-1.667-0.167-3-0.5s-2.333-0.833-3-1.5c-6.667-0.667-12.333-3.833-17-9.5s-7-11.833-7-18.5    V99z M181,330c-5.667,6-12.833,9-21.5,9s-15.667-3-21-9s-8-13.333-8-22c0-8,2.833-14.833,8.5-20.5s12.5-8.5,20.5-8.5    c8.667,0,15.834,2.667,21.5,8c5.667,5.333,8.5,12.333,8.5,21S186.667,324,181,330z M309,330c-5.667-6-8.5-13.333-8.5-22    s3-15.667,9-21s13-8,21-8c8.667,0,15.667,2.833,21,8.5s8,12.5,8,20.5c0,8.667-2.667,16-8,22s-12.333,9-21,9    C321.832,339,314.665,336,309,330z"/>
	</g>
</g>

</svg>
	<svg width="32" height="32" viewBox="0 0 491.939 491.939" y="384">
		<g xmlns="http://www.w3.org/2000/svg">
			<path d="M460.212,365.029l-1.812-0.531c-26.469-7.094-35.406-13.938-47.219-18.406c-38.656-14.75-50.875-25.688-54.656-31.531     c8.094-7.312,15.5-16.109,22.062-26.312c19.844-30.773,26.906-65.992,26.906-88.687V95.499c0-36.102-5.375-57.781-18-72.492     C373.868,7.094,352.337,0,317.682,0H194.3c-27.234,0-48.578,7.539-63.453,22.406c-16.14,16.141-24.328,40.734-24.328,73.093     c0,0,0,42.367,0,104.062c0,35.937,9.609,69.593,27.093,94.781c5.969,8.594,12.75,16.062,20.266,22.375     c-5.234,6.172-18.688,16.266-53.078,29.375c-11.78,4.468-20.733,11.312-47.201,18.406l-1.812,0.531     c-24.095,7.969-40.313,30.313-40.313,55.53v91.438h244.529h244.521v-91.438C500.524,395.342,484.306,372.998,460.212,365.029z      M362.65,347.06v58.264h-21.312v-75.482C346.587,336.217,354.15,341.951,362.65,347.06z M151.129,282.17     c-14.797-21.328-23.281-51.437-23.281-82.609c0-61.695,0-104.062,0-104.062c0-50.601,21.125-74.164,66.453-74.164h123.381     c27.875,0,44.406,4.797,53.625,15.555c8.875,10.375,12.844,28.445,12.844,58.609v104.062c0,18.766-6.156,50.218-23.5,77.125     c-12.719,19.75-35.876,43.312-73.812,43.312h-61.695C193.455,319.998,168.551,307.279,151.129,282.17z M255.861,362.655     c-34.156,0-55.625-10.859-63.859-16v-9.781c10.344,2.936,21.422,4.468,33.141,4.468h61.695c11.655,0,22.749-1.781,33.155-5.234     v10.516C311.681,351.78,290.025,362.655,255.861,362.655z M319.993,370.81v34.514H192.003v-34.451     c13.547,6.313,34.891,13.125,63.859,13.125C284.932,383.998,306.4,377.123,319.993,370.81z M149.332,347.06     c8.531-5.093,16.094-10.843,21.328-17.218v75.482h-21.328V347.06z M106.52,490.652H32.801v-70.093     c0-15.906,10.172-29.998,25.328-35.154l1.203-0.344c19.938-5.375,30.953-10.656,39.812-14.891     c3.422-1.641,6.375-3.047,9.25-4.141c6.125-2.344,12.843-5.031,19.609-8.047v47.342H106.52V490.652z M383.868,490.652H127.863     v-64h256.006V490.652z M479.181,490.652L479.181,490.652h-73.999v-85.328h-21.188v-47.342c6.781,3.016,13.5,5.703,19.625,8.047     c2.844,1.094,5.812,2.5,9.25,4.141c8.844,4.234,19.844,9.516,39.812,14.891l1.188,0.344     c15.155,5.156,25.312,19.248,25.312,35.154V490.652z"/>
			<path d="M170.004,85.328h171.99c5.906,0,10.656-4.773,10.656-10.664S347.9,64,341.993,64h-171.99     c-5.891,0-10.672,4.773-10.672,10.664S164.113,85.328,170.004,85.328z"/>
			<path d="M351.993,106.664h-191.99v106.663h191.99V106.664z M205.004,191.999h-23.672v-64h39.672L205.004,191.999z      M247.768,191.999h-20.781l16-64h20.703L247.768,191.999z M330.65,191.998L330.65,191.998h-60.898l15.93-64h44.968V191.998z"/>
		</g>

</svg>
	<svg width="32" height="32" viewBox="0 0 480 480" y="416">
<g>
	<g>
		<path d="M349.656,250.344l-24-24c-1.5-1.5-3.534-2.344-5.656-2.344H160c-2.122,0-4.156,0.844-5.656,2.344l-24,24    c-2.196,2.199-2.92,5.472-1.856,8.392l32,88c1.15,3.159,4.151,5.262,7.512,5.264h144c3.361-0.002,6.362-2.106,7.512-5.264l32-88    C352.576,255.816,351.853,252.543,349.656,250.344z M173.6,336l-28.344-77.944l16.592-16.592L182.104,336H173.6z M198.464,336    l-20.568-96h22.656l6.856,96H198.464z M232,336h-8.552l-6.856-96H232V336z M256.552,336H248v-96h15.408L256.552,336z M272.592,336    l6.856-96h22.656l-20.568,96H272.592z M306.4,336h-8.504l20.256-94.536l16.592,16.592L306.4,336z"/>
	</g>
</g>
<g>
	<g>
		<path d="M143.432,341.032l-16-40c-1.214-3.04-4.158-5.033-7.432-5.032H40c-4.418,0-8,3.582-8,8v40c0,4.418,3.582,8,8,8h96    c4.418,0.002,8.001-3.579,8.003-7.997C144.003,342.985,143.81,341.977,143.432,341.032z M48,336v-24h66.584l9.6,24H48z"/>
	</g>
</g>
<g>
	<g>
		<path d="M440,296h-80c-3.273-0.001-6.218,1.992-7.432,5.032l-16,40c-1.639,4.103,0.358,8.758,4.461,10.397    c0.945,0.378,1.953,0.571,2.971,0.571h96c4.418,0,8-3.582,8-8v-40C448,299.582,444.418,296,440,296z M432,336h-76.184l9.6-24H432    V336z"/>
	</g>
</g>
<g>
	<g>
		<path d="M440,224h-34.336c-16.377-0.057-31.117,9.924-37.144,25.152l-7.952,19.88c-1.639,4.103,0.358,8.758,4.461,10.397    c0.945,0.378,1.953,0.571,2.971,0.571h56c13.255,0,24-10.745,24-24v-24C448,227.582,444.418,224,440,224z M432,256    c0,4.418-3.582,8-8,8h-44.184l3.568-8.912c3.617-9.133,12.457-15.12,22.28-15.088H432V256z"/>
	</g>
</g>
<g>
	<g>
		<path d="M119.432,269.032l-7.952-19.88c-6.027-15.228-20.767-25.209-37.144-25.152H40c-4.418,0-8,3.582-8,8v24    c0,13.255,10.745,24,24,24h56c4.418,0.002,8.001-3.579,8.003-7.997C120.003,270.985,119.81,269.977,119.432,269.032z M56,264    c-4.418,0-8-3.582-8-8v-16h26.336c9.823-0.032,18.663,5.955,22.28,15.088l3.568,8.912H56z"/>
	</g>
</g>
<g>
	<g>
		<path d="M391.432,165.032l-32-80c-1.214-3.04-4.158-5.033-7.432-5.032H128c-3.274-0.001-6.218,1.992-7.432,5.032l-32,80    c-1.639,4.103,0.358,8.758,4.461,10.397c0.945,0.378,1.953,0.571,2.971,0.571h288c4.418,0.002,8.001-3.579,8.003-7.997    C392.003,166.985,391.81,165.977,391.432,165.032z M107.816,160l25.6-64h213.168l25.6,64H107.816z"/>
	</g>
</g>
<g>
	<g>
		<path d="M435.32,168H456c13.255,0,24-10.745,24-24s-10.745-24-24-24h-16c-10.384,0.036-19.562,6.759-22.728,16.648l-37.696-75.384    c-4.044-8.149-12.367-13.292-21.464-13.264H114.544c-9.596,0.004-18.267,5.724-22.048,14.544l-30.68,71.576    C57.942,125.543,49.412,120.022,40,120H24c-13.255,0-24,10.745-24,24s10.745,24,24,24h20.68L7.032,205.656    c-4.518,4.489-7.05,10.599-7.032,16.968V344c0.024,19.001,13.389,35.373,32,39.2V408c0,13.255,10.745,24,24,24h32    c13.255,0,24-10.745,24-24v-24h256v24c0,13.255,10.745,24,24,24h32c13.255,0,24-10.745,24-24v-24.8    c18.611-3.827,31.976-20.199,32-39.2V222.624c0.015-6.368-2.517-12.477-7.032-16.968L435.32,168z M432,144c0-4.418,3.582-8,8-8h16    c4.418,0,8,3.582,8,8s-3.582,8-8,8h-24V144z M24,152c-4.418,0-8-3.582-8-8s3.582-8,8-8h16c4.418,0,8,3.582,8,8v8H24z M96,408    c0,4.418-3.582,8-8,8H56c-4.418,0-8-3.582-8-8v-24h48V408z M432,408c0,4.418-3.582,8-8,8h-32c-4.418,0-8-3.582-8-8v-24h48V408z     M464,344c0,13.255-10.745,24-24,24H40c-13.255,0-24-10.745-24-24V222.624c0-2.122,0.844-4.156,2.344-5.656l44.408-44.4    L107.2,68.848c1.26-2.938,4.147-4.844,7.344-4.848h243.568c3.033-0.012,5.808,1.705,7.152,4.424l52.16,104.32l44.232,44.224    c1.5,1.5,2.344,3.534,2.344,5.656V344z"/>
	</g>
</g>

	</svg>
</svg>