
	<svg viewBox="0 0 489.773 489.773" width="32" height="32" id="atomic-orbitals" y="0"><g ><path d="M244.886 207.017c-20.927 0-37.87 16.958-37.87 37.87 0 20.944 16.942 37.87 37.87 37.87s37.87-16.94 37.87-37.87c0-20.913-16.959-37.871-37.87-37.87z"/><path d="M489.773 250.299c0-35.909-23.55-69.211-66.396-94.021v-5.498c2.198-26.238-.281-51.391-7.172-72.744-7.299-22.615-19.259-39.849-34.59-49.839-13.656-8.875-29.68-13.375-47.624-13.375-26.266 0-56.236 12.117-89.104 36.019-32.871-23.902-62.842-36.019-89.105-36.019-17.946 0-33.97 4.501-47.63 13.379-15.326 9.986-27.285 27.22-34.583 49.835-6.892 21.354-9.371 46.507-7.173 72.745v5.497C23.55 181.091 0 214.393 0 250.299c0 37.677 25.725 72.209 72.491 97.391a37.398 37.398 0 0 0-.17 1.916c-3.858 53.21 11.138 93.324 42.224 112.956 13.031 8.221 28.149 12.389 44.934 12.389 25.863 0 55.362-10.074 85.409-29.15 30.045 19.074 59.544 29.148 85.407 29.15h.004c16.783 0 31.898-4.168 44.932-12.39 31.086-19.632 46.081-59.736 42.227-112.891a41.589 41.589 0 0 0-.174-1.98c46.764-25.182 72.489-59.714 72.489-97.391zm-217.816-133.67c-15.474-.76-38.67-.76-54.144 0 8.731-8.726 17.808-16.88 27.073-24.319 9.258 7.433 18.335 15.589 27.071 24.319zm69.12 186.547c-12.728 20.373-19.332 27.478-31.32 40.374-1.164 1.254-2.378 2.559-3.651 3.936l-6.005 6.487c-15.686 1.911-31.903 2.88-48.267 2.88h-13.896c-16.358 0-32.572-.969-48.269-2.88l-6.004-6.488c-1.273-1.377-2.489-2.684-3.654-3.938-11.988-12.896-18.591-20.003-31.315-40.368-9.737-15.612-17.849-30.22-24.775-44.61a439.577 439.577 0 0 1 34.817-67.307c9.793-15.595 20.561-30.613 32.008-44.646 31.765-3.694 76.515-3.694 108.28 0 11.446 14.033 22.214 29.052 32.016 44.659a439.322 439.322 0 0 1 34.807 67.294c-6.92 14.382-15.032 28.99-24.772 44.607zm37.826-7.839c3.622 12.382 6.375 24.505 8.205 36.142-13.536 5.826-28.086 10.691-43.407 14.519 7.29-8.831 9.872-12.537 19.241-25.987l1.22-1.751c5.427-7.804 10.285-15.353 14.741-22.923zm-232.834 50.657c-15.334-3.832-29.878-8.693-43.404-14.516 1.831-11.637 4.583-23.759 8.206-36.14 4.455 7.565 9.311 15.115 14.744 22.925l1.235 1.771c9.214 13.228 11.927 17.122 19.219 25.96zm-69.46-27.801c-31.652-19.18-49.023-43.185-49.023-67.894 0-23.358 15.704-46.306 44.353-65.027l.349 2.15c4.227 26.066 11.08 49.926 20.941 72.897-7.449 19.761-13.032 39.204-16.62 57.874zm16.994-176.356c-2.054-41.961 9.563-77.474 29.603-90.478 9.078-5.93 20.038-8.937 32.576-8.937 19.832 0 43.478 9.799 70.318 29.132-17.079 13.903-33.804 30.362-49.773 48.986-30.5 4.41-58.269 11.881-82.678 22.233l-.046-.936zm4.408 29.252c15.669-7.133 33.289-13.001 52.549-17.501a500.16 500.16 0 0 0-15.316 22.83c-9.623 15.314-18.29 30.861-25.818 46.306-5.085-15.323-8.572-30.337-10.623-45.702l-.792-5.933zm62.533 275.513c-11.664.002-22.001-2.786-30.724-8.287-20.377-12.839-31.039-40.529-30.077-78.041 20.053 7.902 41.884 13.938 65.078 17.998l8.576 8.941c14.903 15.535 30.626 29.273 46.789 40.886-21.554 12.118-42.101 18.503-59.642 18.503zm48.325-63.096c10.075.665 19.627.991 29.071.991h13.893c9.445 0 18.998-.326 29.071-.991-11.795 10.826-23.899 20.343-36.017 28.322-12.116-7.976-24.222-17.495-36.018-28.322zm151.084 54.81c-8.722 5.499-19.059 8.286-30.725 8.286-17.541 0-38.087-6.385-59.643-18.503 16.165-11.613 31.887-25.351 46.789-40.886l8.577-8.941c23.198-4.062 45.025-10.097 65.076-17.998.963 37.51-9.698 65.202-30.074 78.042zm31.016-261.294c-2.05 15.363-5.537 30.377-10.622 45.702-7.528-15.448-16.198-30.999-25.824-46.317a500.47 500.47 0 0 0-15.31-22.818c19.255 4.499 36.876 10.368 52.546 17.5l-.79 5.933zm5.201-35.186l-.047.938c-24.423-10.355-52.191-17.825-82.678-22.233-15.966-18.618-32.691-35.08-49.775-48.986 26.843-19.333 50.489-29.132 70.32-29.132 12.539 0 23.501 3.008 32.59 8.945 20.029 12.996 31.644 48.507 29.59 90.468zm16.993 176.357c-3.587-18.67-9.17-38.112-16.62-57.873 9.859-22.967 16.714-46.826 20.94-72.897l.35-2.149c28.653 18.727 44.354 41.672 44.354 65.025 0 24.709-17.371 48.714-49.024 67.894z"/></g></svg><svg viewBox="0 0 508 508" width="32" height="32" id="elevator" y="32"><path d="M493.9 0H14.1C6.3 0 0 6.3 0 14.1v479.8c0 7.8 6.3 14.1 14.1 14.1h479.8c7.8 0 14.1-6.3 14.1-14.1V14.1C508 6.3 501.7 0 493.9 0zm-254 479.8H28.2V28.2h211.7v451.6zm239.9 0H268.1V28.2h211.7v451.6z"/><path d="M192.4 268.3c-5.5-5.5-14.4-5.5-20 0l-24.2 24.2V181.4c0-7.8-6.3-14.1-14.1-14.1s-14.1 6.3-14.1 14.1v111.2l-24.2-24.2c-5.5-5.5-14.4-5.5-20 0-5.5 5.5-5.5 14.4 0 20l48.3 48.2c2.8 2.8 6.4 4.1 10 4.1 3.6 0 7.2-1.4 10-4.1l48.3-48.3c5.5-5.5 5.5-14.4 0-20zM432.3 219.6L384 171.3c-2.8-2.8-6.4-4.1-10-4.1-3.6 0-7.2 1.4-10 4.1l-48.3 48.3c-5.5 5.5-5.5 14.4 0 20 5.5 5.5 14.4 5.5 20 0l24.2-24.2v111.2c0 7.8 6.3 14.1 14.1 14.1s14.1-6.3 14.1-14.1V215.4l24.2 24.2c5.5 5.5 14.4 5.5 20 0 5.5-5.5 5.5-14.4 0-20z"/></svg>
	<svg width="32" height="32" y="64" viewBox="0 0 512 512" id="energy">
<g>
	<g>
		<path d="M185.985,0l-16.152,25.297l21.325,13.615C96.954,66.993,29.768,154.382,29.768,255.702    c0,43.14,12.192,85.094,35.258,121.324c22.44,35.248,54.102,63.581,91.56,81.933l13.206-26.951    c-32.501-15.923-59.973-40.51-79.448-71.1c-19.994-31.406-30.563-67.785-30.563-105.206c0-87.376,57.597-162.803,138.552-187.601    l-14.161,22.178l25.296,16.152l41.473-64.957L185.985,0z"/>
	</g>
</g>
<g>
	<g>
		<path d="M482.232,256.298c0-43.14-12.192-85.094-35.258-121.324c-22.44-35.248-54.102-63.581-91.56-81.933l-13.206,26.951    c32.5,15.924,59.973,40.51,79.448,71.1c19.994,31.406,30.563,67.785,30.563,105.206c0,87.377-57.597,162.803-138.552,187.601    l14.161-22.178l-25.297-16.152l-41.473,64.957L326.015,512l16.152-25.297l-21.325-13.615    C415.046,445.007,482.232,357.618,482.232,256.298z"/>
	</g>
</g>
<g>
	<g>
		<polygon points="367.138,225.334 265.734,225.334 280.868,66.516 144.862,289.43 245.382,289.43 227.668,445.484   "/>
	</g>
</g>

</svg><svg viewBox="0 0 214.203 214.203" width="32" height="32" id="power-station" y="96"><path d="M162.963 52.164c0 8.208 6.678 14.887 14.887 14.887s14.887-6.678 14.887-14.887-6.678-14.887-14.887-14.887-14.887 6.678-14.887 14.887zm14.887-4.888a4.892 4.892 0 0 1 4.887 4.887c0 2.694-2.192 4.887-4.887 4.887s-4.887-2.192-4.887-4.887a4.893 4.893 0 0 1 4.887-4.887zm19.414 158.849c-.092-.118-9.312-12.152-21.215-42.216-11.823-29.861-9.572-63.782-9.548-64.119a5 5 0 0 0-4.987-5.36h-29.631c-.154-7.598.177-12.354.187-12.489a5.004 5.004 0 0 0-1.32-3.776 4.967 4.967 0 0 0-2.018-1.295c6.548-3.487 11.182-10.111 11.857-17.861 15.479-.901 27.794-13.779 27.794-29.479 0-16.283-13.247-29.53-29.53-29.53s-29.53 13.247-29.53 29.53c0 2.243.249 4.447.741 6.597a22.668 22.668 0 0 0-4.412 2.316 32.872 32.872 0 0 0-15.502-3.857c-18.232 0-33.066 14.833-33.066 33.066 0 3.145.451 6.186 1.275 9.07a5.002 5.002 0 0 0-2.48 1.442 4.999 4.999 0 0 0-1.321 3.774c.029.396 2.779 39.965-11.649 74.827-14.525 35.097-25.785 49.136-25.89 49.265a5.003 5.003 0 0 0 3.864 8.174h172.44a4.997 4.997 0 0 0 4.487-2.808 5.009 5.009 0 0 0-.546-5.271zm-82.301-63.566L94.43 180.773a5.002 5.002 0 0 1-5.624 2.482 5 5 0 0 1-3.78-4.849v-21.109H72.677a5 5 0 0 1-4.586-6.992l17.348-39.937a5 5 0 0 1 9.586 1.993v22.831h15.533a5 5 0 0 1 4.405 7.367zm3.264-73.058l-.61-.037a5.021 5.021 0 0 0-5.088 3.786 23.104 23.104 0 0 1-1.111 3.314h-42.54a22.933 22.933 0 0 1-1.793-8.913c0-12.719 10.347-23.066 23.066-23.066 4.693 0 9.212 1.405 13.068 4.063a5 5 0 0 0 6.323-.531A12.462 12.462 0 0 1 117 44.649a5 5 0 0 0 4.072-7.047 19.357 19.357 0 0 1-1.748-8.072c0-10.769 8.761-19.53 19.53-19.53s19.53 8.761 19.53 19.53c0 11.679-10.294 21.037-22.315 19.329a5 5 0 0 0-5.619 5.873c.152.81.226 1.566.226 2.313-.001 6.868-5.59 12.456-12.449 12.456zm50.028 134.702c-3.415-4.805-12.93-19.393-24.536-47.438-7.555-18.256-10.399-37.8-11.391-52.335h23.988c-.208 11.226.513 38.101 10.435 63.16 7.079 17.878 13.254 29.655 17.361 36.613h-15.857z"/></svg><svg viewBox="0 0 489.229 489.229" width="32" height="32" id="storage" y="128"><path d="M482.807 152.48L249.691 37.786a11.495 11.495 0 0 0-10.154 0L6.423 152.48A11.5 11.5 0 0 0 0 162.799v267.752c0 12.172 9.903 22.075 22.075 22.075h445.078c12.173 0 22.076-9.903 22.076-22.075V162.799c0-4.383-2.491-8.384-6.422-10.319zm-97.693 152.659h-281v-39.507h281v39.507zm-281 23h281v39.508h-281v-39.508zm281-85.506h-281v-41.007h281v41.007zm-281 148.014h281v38.979h-281v-38.979zm362.115 38.979h-58.115v-239.5c0-6.352-5.148-11.5-11.5-11.5h-304c-6.351 0-11.5 5.148-11.5 11.5v239.5H23V169.957L244.614 60.921l221.615 109.036v259.669z"/></svg><svg viewBox="0 0 297 297" width="32" height="32" id="tank" y="160"><path d="M165.333 115a34.03 34.03 0 0 0-1.213-9H297V90H154.369C149.788 85.777 144 82.802 137 81.6V74.034c0-.17.333-.218.329-.386C137.06 64.354 129.753 57 120.396 57H50v27.998C39 90.722 32.166 102.008 32.166 115c0 .129.093.255.094.384a55.55 55.55 0 0 1 6.406-.384h126.667zM264 207.75v-.273c18-2.979 32-18.555 32-37.566v-.332C296 148.406 279.171 131 258 131H38.666C17.495 131 0 148.406 0 169.578v.332c0 19.012 14 34.587 32 37.566v.273c0 5.907 1.762 11.439 4.535 16.201C42.123 233.546 52.679 240 64.583 240h167.5c11.904 0 22.127-6.454 27.715-16.049 2.773-4.762 4.202-10.294 4.202-16.201zm-88.567 15.5c-8.979 0-16.256-7.277-16.256-16.256s7.277-16.256 16.256-16.256 16.26 7.277 16.26 16.256c-.001 8.979-7.281 16.256-16.26 16.256zm-71.256-16.256c0-8.979 7.277-16.256 16.256-16.256s16.26 7.277 16.26 16.256-7.28 16.256-16.26 16.256c-8.979 0-16.256-7.277-16.256-16.256zm-55 0c0-8.979 7.277-16.256 16.256-16.256s16.26 7.277 16.26 16.256-7.28 16.256-16.26 16.256c-8.979 0-16.256-7.277-16.256-16.256zm181.256 16.256c-8.979 0-16.256-7.277-16.256-16.256s7.277-16.256 16.256-16.256 16.26 7.277 16.26 16.256c-.001 8.979-7.281 16.256-16.26 16.256z"/></svg><svg width="32" height="32" viewBox="0 0 446 446" id="technology" y="192"><path d="M439.124 81.16h-68.511V59.424a7.146 7.146 0 0 0-7.146-7.146h-48.999a7.146 7.146 0 0 0-7.146 7.146V81.16H138.947V59.424a7.146 7.146 0 0 0-7.146-7.146H82.802a7.146 7.146 0 0 0-7.146 7.146V81.16H7.146A7.146 7.146 0 0 0 0 88.306v45.614a7.146 7.146 0 0 0 7.146 7.146H439.125a7.147 7.147 0 0 0 7.146-7.146V88.306a7.148 7.148 0 0 0-7.147-7.146zM30.346 384.723c0 5.119 4.149 9.27 9.268 9.27h367.041a9.27 9.27 0 0 0 9.269-9.27V165.404H30.346v219.319zm148.916-94.709l21.716-69.401a2.858 2.858 0 0 1 2.727-2.004h33.864c.914 0 1.771.438 2.311 1.177.538.738.689 1.691.406 2.561l-13.221 40.839h37.217a2.857 2.857 0 1 1 2.403 4.404l-49.719 77.149a2.858 2.858 0 0 1-5.22-2.009l8.028-49.005H181.99a2.859 2.859 0 0 1-2.728-3.711z"/></svg><svg viewBox="0 0 512 512" width="32" height="32" id="tool" y="492"><path d="M329.227 7.924A14.994 14.994 0 0 0 316 0H196a14.997 14.997 0 0 0-12.481 23.321L211 64.541V105c0 19.53 12.578 36.024 30 42.237v53.491l-21.709 10.854c-7.412 3.706-10.415 12.715-6.709 20.127 2.637 5.259 7.925 8.291 13.433 8.291 2.256 0 4.541-.513 6.694-1.582l8.291-4.146v26.455l-21.709 10.854c-7.412 3.706-10.415 12.715-6.709 20.127 2.637 5.259 7.925 8.291 13.433 8.291 2.256 0 4.541-.513 6.694-1.582l8.291-4.146v26.455l-21.709 10.854c-7.412 3.706-10.415 12.715-6.709 20.127 2.637 5.259 7.925 8.291 13.433 8.291 2.256 0 4.541-.513 6.694-1.582L241 354.27V375c0 8.291 6.709 15 15 15s15-6.709 15-15v-35.728l21.709-10.854c7.412-3.706 10.415-12.715 6.709-20.127-3.721-7.397-12.729-10.4-20.127-6.709L271 305.728v-26.455l21.709-10.854c7.412-3.706 10.415-12.715 6.709-20.127-3.721-7.412-12.729-10.4-20.127-6.709L271 245.728v-26.455l21.709-10.854c7.412-3.706 10.415-12.715 6.709-20.127-3.721-7.412-12.729-10.386-20.127-6.709L271 185.728v-38.491c17.422-6.213 30-22.707 30-42.237V64.541l27.48-41.221a15.018 15.018 0 0 0 .747-15.396z"/><path d="M466 300h46v-75c0-8.291-6.709-15-15-15h-54.789l-25.605-25.605A14.99 14.99 0 0 0 406 180h-60c-8.291 0-15 6.709-15 15v75h45c8.291 0 15 6.709 15 15s-6.709 15-15 15h-45v45c0 41.353-33.647 75-75 75s-75-33.647-75-75v-45h-45c-8.291 0-15-6.709-15-15s6.709-15 15-15h45v-75c0-8.291-6.709-15-15-15h-60a14.986 14.986 0 0 0-10.605 4.395L69.789 210H15c-8.291 0-15 6.709-15 15v75h46c8.291 0 15 6.709 15 15s-6.709 15-15 15H0v90h46c8.291 0 15 6.709 15 15s-6.709 15-15 15H0v47c0 8.291 6.709 15 15 15h482c8.291 0 15-6.709 15-15v-47h-46c-8.291 0-15-6.709-15-15s6.709-15 15-15h46v-90h-46c-8.291 0-15-6.709-15-15s6.709-15 15-15zm-360 90H76c-8.291 0-15-6.709-15-15s6.709-15 15-15h30c8.291 0 15 6.709 15 15s-6.709 15-15 15zm330 0h-30c-8.291 0-15-6.709-15-15s6.709-15 15-15h30c8.291 0 15 6.709 15 15s-6.709 15-15 15z"/></svg><svg viewBox="0 0 1489.639 1489.639" width="32" height="32" id="transport" y="524"><g><path d="M1414.637 629.379h-57.796V389.894l-.911-8.199c0-.304-4.353-22.673 6.883-36.54 11.337-13.969 36.54-16.903 55.67-16.903 20.75 0 37.451-16.802 37.451-37.451s-16.701-37.451-37.451-37.451c-52.128 0-90.692 15.284-114.681 45.65-28.544 36.034-24.495 79.356-21.965 94.437V629.48H902.468L733.837 230.677c-31.074-76.117-77.634-131.18-149.905-131.18h-365.4c-72.27 0-131.18 58.808-131.18 131.18v483.625l22.066-22.066c29.151-29.151 68.829-44.435 109.924-43.726 27.43-29.354 66.4-47.067 109.215-47.067h75.003c42.917 0 81.785 17.713 109.316 47.067 41.196-.81 80.671 14.575 109.924 43.828l52.937 52.937c29.758 29.657 44.739 70.044 43.625 110.328 29.252 27.633 47.269 66.805 47.269 108.912v68.728h235.03c-35.629 37.957-57.594 88.769-57.594 144.845 0 116.807 95.045 212.054 212.054 212.054 116.807 0 212.054-95.146 212.054-212.054 0-56.48-22.37-107.596-58.201-145.553 41.804-3.442 104.762-35.224 104.762-74.092l74.902-253.958c-.099-41.603-33.704-75.106-75.001-75.106zM201.224 538.282V273.088c0-47.978 39.071-86.947 86.947-86.947h242.217c47.877 0 78.85 36.439 99.397 86.947L741.53 539.294l-540.306-1.012zm954.798 739.304c-54.861 0-99.599-44.637-99.599-99.498 0-54.962 44.739-99.6 99.599-99.6 54.86 0 99.499 44.637 99.499 99.6.1 54.758-44.638 99.498-99.499 99.498z"/><path d="M632.619 804.488l-47.168-47.168c-26.013-26.114-61.238-39.779-97.98-39.071-24.495-26.114-59.112-41.905-97.373-41.905h-66.703c-38.16 0-72.877 15.79-97.272 41.905-36.54-.709-71.966 12.956-97.98 39.071l-47.269 47.168c-27.025 27.127-40.488 62.857-39.172 98.79C15.891 927.873 0 962.592 0 999.84v66.703c0 37.249 15.891 71.967 41.703 96.664-1.215 35.831 12.146 71.562 39.172 98.689l47.168 47.168c26.013 26.114 61.44 40.184 97.98 39.071 24.495 26.216 59.112 42.006 97.272 42.006h66.703c38.16 0 72.877-15.79 97.373-42.006 36.742 1.215 71.966-12.956 97.98-39.071l47.168-47.168c26.519-26.418 39.779-62.452 38.868-98.284 26.013-24.697 42.107-59.517 42.107-97.069V999.84c0-37.552-16.094-72.27-42.107-96.968 1.011-35.932-12.35-71.865-38.768-98.384zm-275.923 452.044c-123.082 0-223.289-100.207-223.289-223.289s100.206-223.29 223.289-223.29 223.289 100.206 223.289 223.29-100.207 223.289-223.289 223.289z"/><circle cx="356.696" cy="1033.242" r="123.082"/></g></svg>
	<svg viewBox="0 0 511.99 511.99" width="32" height="32" id="trolleybus-facing-right" y="556">
<g>
	<g>
		<g>
			<path d="M479.992,175.992H319.994v-21.328c0-5.891-4.766-10.672-10.671-10.672h-26.874L200.325,41.338     c-3.688-4.601-10.391-5.351-15-1.672c-4.594,3.68-5.344,10.398-1.656,14.992l71.467,89.334h-26.015L146.982,41.338     c-3.672-4.601-10.375-5.351-14.984-1.672c-4.594,3.68-5.344,10.398-1.672,14.992l71.467,89.334h-20.467     c-5.875,0-10.656,4.781-10.656,10.672v21.328H32c-17.641,0-32,14.359-32,32v181.325c0,17.656,14.359,31.999,32,31.999h10.671     c0,29.406,23.921,53.344,53.327,53.344s53.327-23.938,53.327-53.344h191.996c0,29.406,23.938,53.344,53.343,53.344     c29.405,0,53.327-23.938,53.327-53.344h32c17.64,0,31.999-14.343,31.999-31.999v-74.655v-85.334v-21.335     C511.991,190.351,497.632,175.992,479.992,175.992z M223.997,165.328h0.016h53.312c0,0,0,0,0.016,0c0,0,0,0,0.016,0h21.312     v10.664h-106.67v-10.664H223.997z M47.14,399.988H32c-5.891,0-10.672-4.781-10.672-10.672h32.031     C50.89,392.597,48.797,396.175,47.14,399.988z M95.999,453.315c-17.64,0-32-14.344-32-32c0-17.64,14.359-31.999,32-31.999     s32,14.359,32,31.999C127.998,438.972,113.639,453.315,95.999,453.315z M170.669,303.991h-42.671v-64h42.671V303.991z      M234.668,399.988h-42.671v-74.671h42.671V399.988z M234.668,303.991h-42.671v-64h42.671V303.991z M298.667,399.988h-42.671     v-74.671h42.671V399.988z M298.667,303.99h-42.671v-64h42.671V303.99z M394.665,453.315c-17.655,0-31.999-14.344-31.999-32     c0-17.64,14.344-31.999,31.999-31.999c17.64,0,31.999,14.359,31.999,31.999C426.664,438.972,412.305,453.315,394.665,453.315z      M490.663,346.661H469.32c-5.875,0-10.656,4.766-10.656,10.656s4.781,10.672,10.656,10.672h21.343v21.327     c0,5.891-4.78,10.672-10.671,10.672h-36.469c-8.234-18.812-27.047-31.999-48.858-31.999c-21.827,0-40.624,13.188-48.874,31.999     h-25.797v-74.671h53.328h117.341V346.661z M319.994,303.99v-64h42.672v64H319.994z M383.994,303.991v-64h106.669v64H383.994z      M490.664,218.663H373.322h-53.328h-10.671h-10.656h-42.671h-21.328h-42.671h-10.671H170.67H53.328     c-5.875,0-10.656,4.773-10.656,10.664v85.334c0,5.891,4.781,10.656,10.656,10.656h117.341v74.671h-25.812     c-8.25-18.812-27.031-31.999-48.858-31.999h-74.67V207.992c0-5.875,4.781-10.664,10.672-10.664h149.325h127.998h170.669     c5.891,0,10.671,4.789,10.671,10.664V218.663z M106.67,239.99v64H63.999v-64H106.67z"/>
			<path d="M88.452,413.784c-4.156,4.156-4.156,10.906,0,15.078c4.172,4.172,10.922,4.172,15.094,0     c4.156-4.172,4.156-10.922,0-15.078C99.374,409.613,92.624,409.613,88.452,413.784z"/>
			<path d="M387.118,413.784c-4.171,4.156-4.171,10.906,0,15.078c4.172,4.172,10.922,4.172,15.078,0     c4.172-4.172,4.172-10.922,0-15.078C398.04,409.613,391.29,409.613,387.118,413.784z"/>
		</g>
	</g>
</g>
</svg>
    <svg  xmlns="http://www.w3.org/2000/svg" width="32" height="32" version="1.1" viewBox="0 0 512 512" y="224" style="enable-background:new 0 0 512 512;" xml:space="preserve">
			<path d="M497,271h-46c0-16.542-13.458-30-30-30h-30c-16.542,0-30,13.458-30,30h-15c-8.271,0-15-6.729-15-15v-15     c16.542,0,30-13.458,30-30v-30c0-16.542-13.458-30-30-30h-24.261l20.11-61H346c24.813,0,45-20.187,45-45S370.813,0,346,0H166     c-24.813,0-45,20.187-45,45s20.187,45,45,45h19.151l20.11,61H181c-16.542,0-30,13.458-30,30v30c0,16.542,13.458,30,30,30v15     c0,8.271-6.729,15-15,15h-15c0-16.542-13.458-30-30-30H91c-16.542,0-30,13.458-30,30H15c-8.284,0-15,6.716-15,15v121     c0,8.284,6.716,15,15,15h46c0,16.542,13.458,30,30,30h30c14.833,0,27.178-10.823,29.573-24.984     c2.055,2.354,3.445,5.219,4.179,7.889C167.238,480.297,208.873,512,256,512c47.128,0,88.762-31.703,101.248-77.096     c0.734-2.669,2.124-5.534,4.179-7.888C363.822,441.177,376.167,452,391,452h30c16.542,0,30-13.458,30-30h46     c8.284,0,15-6.716,15-15V286C512,277.716,505.284,271,497,271z M61,392H30v-91h31V392z M120.999,422.018     c-0.001,0.011-0.001,0.002,0-0.018c0,0,0,0,0,0H91V271h30v151C121,422.042,121,422.034,120.999,422.018z M166,60     c-8.271,0-15-6.729-15-15s6.729-15,15-15h180c8.271,0,15,6.729,15,15s-6.729,15-15,15C338.854,60,173.151,60,166,60z M295.26,90     l-20.11,61h-38.302l-20.109-61H295.26z M181,181c14.953,0,135.297,0,150,0l0.019,29.999c0,0-0.006,0.001-0.019,0.001     c-5.53,0-144.16,0-150,0V181z M361,393.424c-15.496,4.063-28.002,16.525-32.678,33.524C319.406,459.362,289.666,482,256,482     c-33.666,0-63.406-22.638-72.322-55.052c-4.676-16.999-17.182-29.46-32.678-33.523V301h15c24.813,0,45-20.187,45-45v-15h90v15     c0,24.813,20.187,45,45,45h15V393.424z M421,422.018c0,0.01,0,0.002,0-0.018c0,0,0,0,0,0H391V271h30v151     C421,422.04,421,422.033,421,422.018z M482,392h-31v-91h31V392z"/><path d="M421,421.982c0-0.01,0-0.002,0,0.018l0,0c0,0,0,0,0,0c0,0.008,0,0.012,0,0.018c0-0.004,0-0.002,0-0.018     C421,421.96,421,421.967,421,421.982z"/><path d="M120.999,421.982c-0.001-0.011-0.001-0.002,0,0.018l0,0c0,0,0,0,0,0c0,0.008,0,0.012,0,0.018     c0-0.004,0-0.002,0.001-0.018C121,421.959,121,421.966,120.999,421.982z"/>
</svg>
    <svg width="32" height="32" viewBox="0 0 217.794 217.794" y="256">
        <path d="M113.595,133.642l-5.932-13.169c5.655-4.151,10.512-9.315,14.307-15.209l13.507,5.118c2.583,0.979,5.469-0.322,6.447-2.904
	l4.964-13.103c0.47-1.24,0.428-2.616-0.117-3.825c-0.545-1.209-1.547-2.152-2.788-2.622l-13.507-5.118
	c1.064-6.93,0.848-14.014-0.637-20.871l13.169-5.932c1.209-0.545,2.152-1.547,2.622-2.788c0.47-1.24,0.428-2.616-0.117-3.825
	l-5.755-12.775c-1.134-2.518-4.096-3.638-6.612-2.505l-13.169,5.932c-4.151-5.655-9.315-10.512-15.209-14.307l5.118-13.507
	c0.978-2.582-0.322-5.469-2.904-6.447L93.88,0.82c-1.239-0.469-2.615-0.428-3.825,0.117c-1.209,0.545-2.152,1.547-2.622,2.788
	l-5.117,13.506c-6.937-1.07-14.033-0.849-20.872,0.636L55.513,4.699c-0.545-1.209-1.547-2.152-2.788-2.622
	c-1.239-0.469-2.616-0.428-3.825,0.117L36.124,7.949c-2.518,1.134-3.639,4.094-2.505,6.612l5.932,13.169
	c-5.655,4.151-10.512,9.315-14.307,15.209l-13.507-5.118c-1.239-0.469-2.615-0.427-3.825,0.117
	c-1.209,0.545-2.152,1.547-2.622,2.788L0.326,53.828c-0.978,2.582,0.322,5.469,2.904,6.447l13.507,5.118
	c-1.064,6.929-0.848,14.015,0.637,20.871L4.204,92.196c-1.209,0.545-2.152,1.547-2.622,2.788c-0.47,1.24-0.428,2.616,0.117,3.825
	l5.755,12.775c0.544,1.209,1.547,2.152,2.787,2.622c1.241,0.47,2.616,0.429,3.825-0.117l13.169-5.932
	c4.151,5.656,9.314,10.512,15.209,14.307l-5.118,13.507c-0.978,2.582,0.322,5.469,2.904,6.447l13.103,4.964
	c0.571,0.216,1.172,0.324,1.771,0.324c0.701,0,1.402-0.147,2.054-0.441c1.209-0.545,2.152-1.547,2.622-2.788l5.117-13.506
	c6.937,1.069,14.034,0.849,20.872-0.636l5.931,13.168c0.545,1.209,1.547,2.152,2.788,2.622c1.24,0.47,2.617,0.429,3.825-0.117
	l12.775-5.754C113.607,139.12,114.729,136.16,113.595,133.642z M105.309,86.113c-4.963,13.1-17.706,21.901-31.709,21.901
	c-4.096,0-8.135-0.744-12.005-2.21c-8.468-3.208-15.18-9.522-18.899-17.779c-3.719-8.256-4-17.467-0.792-25.935
	c4.963-13.1,17.706-21.901,31.709-21.901c4.096,0,8.135,0.744,12.005,2.21c8.468,3.208,15.18,9.522,18.899,17.778
	C108.237,68.434,108.518,77.645,105.309,86.113z M216.478,154.389c-0.896-0.977-2.145-1.558-3.469-1.615l-9.418-0.404
	c-0.867-4.445-2.433-8.736-4.633-12.697l6.945-6.374c2.035-1.867,2.17-5.03,0.303-7.064l-6.896-7.514
	c-0.896-0.977-2.145-1.558-3.47-1.615c-1.322-0.049-2.618,0.416-3.595,1.312l-6.944,6.374c-3.759-2.531-7.9-4.458-12.254-5.702
	l0.404-9.418c0.118-2.759-2.023-5.091-4.782-5.209l-10.189-0.437c-2.745-0.104-5.091,2.023-5.209,4.781l-0.404,9.418
	c-4.444,0.867-8.735,2.433-12.697,4.632l-6.374-6.945c-0.896-0.977-2.145-1.558-3.469-1.615c-1.324-0.054-2.618,0.416-3.595,1.312
	l-7.514,6.896c-2.035,1.867-2.17,5.03-0.303,7.064l6.374,6.945c-2.531,3.759-4.458,7.899-5.702,12.254l-9.417-0.404
	c-2.747-0.111-5.092,2.022-5.21,4.781l-0.437,10.189c-0.057,1.325,0.415,2.618,1.312,3.595c0.896,0.977,2.145,1.558,3.47,1.615
	l9.417,0.403c0.867,4.445,2.433,8.736,4.632,12.698l-6.944,6.374c-0.977,0.896-1.558,2.145-1.615,3.469
	c-0.057,1.325,0.415,2.618,1.312,3.595l6.896,7.514c0.896,0.977,2.145,1.558,3.47,1.615c1.319,0.053,2.618-0.416,3.595-1.312
	l6.944-6.374c3.759,2.531,7.9,4.458,12.254,5.702l-0.404,9.418c-0.118,2.759,2.022,5.091,4.781,5.209l10.189,0.437
	c0.072,0.003,0.143,0.004,0.214,0.004c1.25,0,2.457-0.468,3.381-1.316c0.977-0.896,1.558-2.145,1.615-3.469l0.404-9.418
	c4.444-0.867,8.735-2.433,12.697-4.632l6.374,6.945c0.896,0.977,2.145,1.558,3.469,1.615c1.33,0.058,2.619-0.416,3.595-1.312
	l7.514-6.896c2.035-1.867,2.17-5.03,0.303-7.064l-6.374-6.945c2.531-3.759,4.458-7.899,5.702-12.254l9.417,0.404
	c2.756,0.106,5.091-2.022,5.21-4.781l0.437-10.189C217.847,156.659,217.375,155.366,216.478,154.389z M160.157,183.953
	c-12.844-0.55-22.846-11.448-22.295-24.292c0.536-12.514,10.759-22.317,23.273-22.317c0.338,0,0.678,0.007,1.019,0.022
	c12.844,0.551,22.846,11.448,22.295,24.292C183.898,174.511,173.106,184.497,160.157,183.953z"/>
    </svg>
    <svg height="32" width="32" viewBox="0 0 512 512"  y="288" >
<g>
	<g>
		<path d="M512,142.507l-34.133-102.4c-1.707-3.413-5.12-5.973-8.533-5.973h-17.067c-3.413,0-6.827,1.707-7.68,5.12L428.373,76.8    H256c-2.56,0-4.267,0.853-5.973,2.56L141.653,188.587c-11.947,1.707-21.333,12.8-21.333,25.6v59.733H86.187v17.067    c0,18.773-15.36,34.133-34.133,34.133H0v25.6c0,5.12,3.413,8.533,8.533,8.533h128v8.533H55.467C24.747,366.933,0,391.68,0,422.4    c0,30.72,24.747,55.467,55.467,55.467H320c30.72,0,55.467-24.747,55.467-55.467c0-30.72-24.747-55.467-55.467-55.467h-81.067    V358.4h25.6c5.12,0,8.533-3.413,8.533-8.533V327.68l-82.773-29.867c-17.067-5.973-28.16-22.187-28.16-40.96V204.8H179.2v52.053    c0,11.093,6.827,20.48,17.067,24.747l76.8,28.16v-60.587c0-7.68-1.707-15.36-4.267-23.04    c-6.827-17.067-20.48-29.013-36.693-34.987l44.373-46.933l145.067-6.827l21.333,186.88c-4.267,0.853-7.68,4.267-7.68,8.533v34.133    c0,3.413,1.707,5.12,4.267,6.827l-46.08,91.307c-1.707,2.56-0.853,5.973,0,8.533c1.707,2.56,4.267,4.267,7.68,4.267h48.64    c25.6,0,48.64-16.213,56.32-40.96c4.267-11.947,4.267-25.6,0-37.547l-7.68-24.747c3.413-0.853,5.12-4.267,5.12-7.68V332.8    c0-4.267-3.413-7.68-7.68-8.533L512,145.92C512,145.067,512,143.36,512,142.507z M307.2,392.533c0.853,0,0.853,0,1.707,0    s1.707,0,2.56,0c16.213,0,29.867,13.653,29.867,29.867c0,16.213-13.653,29.867-29.867,29.867c-0.853,0-1.707,0-2.56,0    s-0.853,0-1.707,0H68.267c-0.853,0-0.853,0-1.707,0s-1.707,0-2.56,0c-16.213,0-29.867-13.653-29.867-29.867    c0-16.213,13.653-29.867,29.867-29.867c0.853,0,1.707,0,2.56,0s1.707,0,1.707,0H307.2z M221.867,358.4v8.533H153.6V358.4H221.867z     M420.693,121.173L273.067,128c-2.56,0-4.267,0.853-5.973,2.56l-54.613,57.173h-0.853H179.2h-13.653l93.867-93.867h161.28    l-2.56,5.12c0,1.707,0,2.56,0,4.267L420.693,121.173z M452.267,341.333H486.4V358.4h-34.133V341.333z M489.813,431.787    c-5.973,17.067-22.187,29.013-40.107,29.013H414.72l42.667-85.333h23.04l9.387,29.013    C493.227,413.013,493.227,423.253,489.813,431.787z"/>
	</g>
</g>
<g>
	<g>
		<path d="M34.987,273.067c-18.773,0-34.133,15.36-34.987,34.133h51.2c9.387,0,17.067-7.68,17.067-17.067v-17.067H34.987z"/>
	</g>
</g>
<g>
	<g>
		<path d="M75.947,418.133c0,0,0,0,0-0.853c-0.853-0.853-0.853-2.56-1.707-3.413c0,0,0,0,0-0.853    c-0.853-0.853-1.707-1.707-2.56-2.56c0,0,0,0-0.853,0c-1.707,0-2.56,0-4.267-0.853c-0.853,0-1.707,0-2.56,0    c-6.827,0-12.8,5.973-12.8,12.8s5.973,12.8,12.8,12.8c0.853,0,1.707,0,2.56,0c1.707,0,2.56-0.853,3.413-1.707c0,0,0,0,0.853,0    c0.853-0.853,1.707-1.707,2.56-2.56c0,0,0,0,0-0.853c0.853-0.853,1.707-1.707,1.707-3.413c0,0,0,0,0-0.853    c1.707-0.853,1.707-1.707,1.707-3.413S76.8,419.84,75.947,418.133z"/>
	</g>
</g>
<g>
	<g>
		<path d="M283.307,430.08c0-0.853,0-0.853-0.853-1.707c-0.853-1.707-0.853-3.413-0.853-5.973s0-4.267,0.853-5.973    c0-0.853,0-0.853,0.853-1.707c0-1.707,0.853-2.56,1.707-4.267c0,0,0,0,0-0.853H91.307c0,0,0,0,0,0.853    c0.853,1.707,0.853,2.56,1.707,4.267c0,0.853,0,0.853,0.853,1.707c0,1.707,0,3.413,0,5.973s0,4.267-0.853,5.973    c0,0.853,0,1.707,0,1.707c0,1.707-0.853,2.56-1.707,4.267c0,0,0,0,0,0.853h193.707c0,0,0,0,0-0.853    C284.16,432.64,284.16,431.787,283.307,430.08z"/>
	</g>
</g>
<g>
	<g>
		<path d="M310.613,409.6c-0.853,0-1.707,0-2.56,0c-1.707,0-2.56,0.853-3.413,1.707c0,0,0,0-0.853,0    c-0.853,0.853-1.707,1.707-2.56,2.56c0,0,0,0,0,0.853c-0.853,0.853-1.707,1.707-1.707,3.413c0,0,0,0,0,0.853    c0,0.853-0.853,2.56-0.853,4.267c0,0.853,0.853,1.707,0.853,3.413c0.853,0.853,0.853,2.56,1.707,3.413c0,0,0,0,0,0.853    c0.853,0.853,1.707,1.707,2.56,2.56c0,0,0,0,0.853,0c0.853,0.853,2.56,0.853,3.413,1.707c0.853,0,1.707,0,2.56,0    c6.827,0,12.8-5.973,12.8-12.8S317.44,409.6,310.613,409.6z"/>
	</g>
</g>

</svg>
    <svg height="32" width="32" viewBox="0 0 512 512" y="320">
<g>
	<g>
		<path d="M507.562,164.113l-99.737-98.737c-17.546-17.547-46.096-17.547-63.641,0l-13.18,13.18l-43.183-43.182    c-17.546-17.547-46.096-17.547-63.641,0l-43.183,43.182l-13.18-13.18c-17.546-17.546-46.095-17.546-63.587-0.053L4.437,164.112    c-3.741,3.724-5.283,9.26-3.983,14.362c6.057,23.79,49.045,192.63,55.306,217.221c4.322,17.292,18.251,30.081,35.253,33.293    c-0.447,33.533,26.705,60.796,59.982,60.796c33.085,0,60.002-26.917,60.002-60.002h90.003c0,33.085,26.917,60.002,60.002,60.002    c33.275,0,60.414-27.248,59.982-60.795c17.003-3.211,30.928-15.993,35.238-33.23c6.317-24.813,49.187-193.188,55.321-217.284    C512.781,173.624,511.514,168.067,507.562,164.113z M365.397,86.589c5.786-5.787,15.254-5.959,21.268,0.053l73.871,73.13H292.214    L365.397,86.589z M245.392,56.588c5.85-5.848,15.366-5.848,21.214,0l43.183,43.182L256,153.559L202.211,99.77L245.392,56.588z     M125.388,86.589c5.863-5.863,15.351-5.863,21.214,0l73.184,73.183H51.464L125.388,86.589z M150.996,459.783    c-16.543,0-30.001-13.459-30.001-30.001s13.458-30.001,30.001-30.001c16.543,0,30.001,13.458,30.001,30.001    S167.538,459.783,150.996,459.783z M361.003,459.783c-16.543,0-30.001-13.459-30.001-30.001s13.458-30.001,30.001-30.001    s30.001,13.458,30.001,30.001S377.546,459.783,361.003,459.783z M427.135,388.419c-1.645,6.578-7.46,11.195-14.21,11.348    c-10.393-17.909-29.767-29.986-51.922-29.986c-22.16,0-41.539,12.084-51.93,30.001H202.926    c-10.391-17.917-29.77-30.001-51.93-30.001c-22.154,0-41.529,12.078-51.922,29.986c-6.749-0.152-12.565-4.771-14.226-11.411    l-35.282-138.58h412.867L427.135,388.419z M470.071,219.774H41.928l-7.638-30.001c6.508,0,436.912,0,443.421,0L470.071,219.774z"/>
	</g>
</g>

</svg>
	<svg width="32" height="32" viewBox="0 0 491 491" y="352">
<g>
	<g>
		<path  d="M348.5,377l-1-2c0-0.667,0.167-1,0.5-1s0.5-0.333,0.5-1c10.667-4,20.333-9.333,29-16    s14.667-16.333,18-29l0.5-3.5c0.333-2.333,0.833-4.5,1.5-6.5V57c0-6.667-1.833-13.333-5.5-20c-3.67-6.667-8.336-12.667-14-18    c-5.667-5.333-12-9.833-19-13.5S345.5,0,339.5,0h-187c-6,0-12.5,1.667-19.5,5s-13.333,7.667-19,13s-10.334,11.333-14,18    c-3.667,6.667-5.5,13-5.5,19v265c0,4.667,1,9.333,3,14s4.667,9.167,8,13.5s7,8.333,11,12s8,6.5,12,8.5    c2,0.667,5.167,1.834,9.5,3.5c4.333,1.667,6.5,2.834,6.5,3.5l-77,116h45l56-81h154l56,81h45L348.5,377z M201.5,23    c0-2,0.833-4,2.5-6s3.5-3,5.5-3h72c0.667,0,2,0.667,4,2s3,2.667,3,4v28c0,2-0.833,3.667-2.5,5s-3.167,2-4.5,2h-72    c-1.333-0.667-2.333-1.333-3-2c-1.333-0.667-2.333-1.667-3-3c-1.333-1.337-2-2.67-2-4V23z M129.5,99c0-3.333,0.667-7,2-11    c2-3.339,4.333-6.673,7-10c2-2.667,4.833-5,8.5-7s7.5-3,11.5-3h174c2.667,0,6,1,10,3c2.667,1.333,5.667,3.333,9,6    c2.667,2,4.667,4.667,6,8c2,2.667,3,6,3,10v59c0,3.333-1,6.5-3,9.5s-4.333,5.833-7,8.5c-3.333,2.667-6.667,4.667-10,6    c-2.667,1.333-6,2-10,2h-171c-0.667,0-1.667-0.167-3-0.5s-2.333-0.833-3-1.5c-6.667-0.667-12.333-3.833-17-9.5s-7-11.833-7-18.5    V99z M181,330c-5.667,6-12.833,9-21.5,9s-15.667-3-21-9s-8-13.333-8-22c0-8,2.833-14.833,8.5-20.5s12.5-8.5,20.5-8.5    c8.667,0,15.834,2.667,21.5,8c5.667,5.333,8.5,12.333,8.5,21S186.667,324,181,330z M309,330c-5.667-6-8.5-13.333-8.5-22    s3-15.667,9-21s13-8,21-8c8.667,0,15.667,2.833,21,8.5s8,12.5,8,20.5c0,8.667-2.667,16-8,22s-12.333,9-21,9    C321.832,339,314.665,336,309,330z"/>
	</g>
</g>

</svg>
	<svg width="32" height="32" viewBox="0 0 491.939 491.939" y="384">
		<g xmlns="http://www.w3.org/2000/svg">
			<path d="M460.212,365.029l-1.812-0.531c-26.469-7.094-35.406-13.938-47.219-18.406c-38.656-14.75-50.875-25.688-54.656-31.531     c8.094-7.312,15.5-16.109,22.062-26.312c19.844-30.773,26.906-65.992,26.906-88.687V95.499c0-36.102-5.375-57.781-18-72.492     C373.868,7.094,352.337,0,317.682,0H194.3c-27.234,0-48.578,7.539-63.453,22.406c-16.14,16.141-24.328,40.734-24.328,73.093     c0,0,0,42.367,0,104.062c0,35.937,9.609,69.593,27.093,94.781c5.969,8.594,12.75,16.062,20.266,22.375     c-5.234,6.172-18.688,16.266-53.078,29.375c-11.78,4.468-20.733,11.312-47.201,18.406l-1.812,0.531     c-24.095,7.969-40.313,30.313-40.313,55.53v91.438h244.529h244.521v-91.438C500.524,395.342,484.306,372.998,460.212,365.029z      M362.65,347.06v58.264h-21.312v-75.482C346.587,336.217,354.15,341.951,362.65,347.06z M151.129,282.17     c-14.797-21.328-23.281-51.437-23.281-82.609c0-61.695,0-104.062,0-104.062c0-50.601,21.125-74.164,66.453-74.164h123.381     c27.875,0,44.406,4.797,53.625,15.555c8.875,10.375,12.844,28.445,12.844,58.609v104.062c0,18.766-6.156,50.218-23.5,77.125     c-12.719,19.75-35.876,43.312-73.812,43.312h-61.695C193.455,319.998,168.551,307.279,151.129,282.17z M255.861,362.655     c-34.156,0-55.625-10.859-63.859-16v-9.781c10.344,2.936,21.422,4.468,33.141,4.468h61.695c11.655,0,22.749-1.781,33.155-5.234     v10.516C311.681,351.78,290.025,362.655,255.861,362.655z M319.993,370.81v34.514H192.003v-34.451     c13.547,6.313,34.891,13.125,63.859,13.125C284.932,383.998,306.4,377.123,319.993,370.81z M149.332,347.06     c8.531-5.093,16.094-10.843,21.328-17.218v75.482h-21.328V347.06z M106.52,490.652H32.801v-70.093     c0-15.906,10.172-29.998,25.328-35.154l1.203-0.344c19.938-5.375,30.953-10.656,39.812-14.891     c3.422-1.641,6.375-3.047,9.25-4.141c6.125-2.344,12.843-5.031,19.609-8.047v47.342H106.52V490.652z M383.868,490.652H127.863     v-64h256.006V490.652z M479.181,490.652L479.181,490.652h-73.999v-85.328h-21.188v-47.342c6.781,3.016,13.5,5.703,19.625,8.047     c2.844,1.094,5.812,2.5,9.25,4.141c8.844,4.234,19.844,9.516,39.812,14.891l1.188,0.344     c15.155,5.156,25.312,19.248,25.312,35.154V490.652z"/>
			<path d="M170.004,85.328h171.99c5.906,0,10.656-4.773,10.656-10.664S347.9,64,341.993,64h-171.99     c-5.891,0-10.672,4.773-10.672,10.664S164.113,85.328,170.004,85.328z"/>
			<path d="M351.993,106.664h-191.99v106.663h191.99V106.664z M205.004,191.999h-23.672v-64h39.672L205.004,191.999z      M247.768,191.999h-20.781l16-64h20.703L247.768,191.999z M330.65,191.998L330.65,191.998h-60.898l15.93-64h44.968V191.998z"/>
		</g>

</svg>
	<svg width="32" height="32" viewBox="0 0 48.997 48.998" y="416">
<g>
	<path d="M45.961,18.702c-0.033-0.038-0.061-0.075-0.1-0.112l-1.717-1.657c1.424-0.323,2.957-1.516,2.957-2.74   c0-1.426-1.979-1.932-3.668-1.932c-1.766,0-1.971,1.21-1.992,2.065l-4.43-4.271c-0.9-0.891-2.607-1.592-3.883-1.592H24.5h-0.002   h-8.63c-1.275,0-2.981,0.701-3.882,1.592l-4.429,4.271c-0.023-0.855-0.228-2.065-1.992-2.065c-1.691,0-3.669,0.506-3.669,1.932   c0,1.224,1.534,2.417,2.958,2.74l-1.717,1.657c-0.039,0.037-0.066,0.074-0.1,0.112C1.2,20.272,0,23.184,0,25.297v6.279   c0,1.524,0.601,2.907,1.572,3.938v2.435c0,1.424,1.192,2.585,2.658,2.585h3.214c1.466,0,2.657-1.159,2.657-2.585v-0.623h14.397   H24.5h14.396v0.623c0,1.426,1.19,2.585,2.658,2.585h3.213c1.467,0,2.657-1.161,2.657-2.585v-2.435   c0.972-1.031,1.572-2.414,1.572-3.938v-6.279C48.998,23.184,47.798,20.272,45.961,18.702z M13.613,11.953   c0.623-0.519,1.712-0.913,2.255-0.913h8.63H24.5h8.63c0.543,0,1.632,0.394,2.255,0.913l5.809,5.63H24.5h-0.002H7.805L13.613,11.953   z M1.993,24.347c0-1.546,1.21-2.801,2.704-2.801c1.493,0,6.372,2.864,6.372,4.41s-4.879,1.188-6.372,1.188   C3.203,27.144,1.993,25.894,1.993,24.347z M10.102,34.573H9.587H9.072l-3.055,0.005c-0.848-0.264-1.446-0.572-1.869-0.903   c-0.214-0.167-0.378-0.341-0.506-0.514c-0.129-0.175-0.223-0.347-0.284-0.519c-0.38-1.074,0.405-2.061,0.405-2.061h5.214   l3.476,3.99L10.102,34.573L10.102,34.573z M31.996,34.575H24.5h-0.002h-7.496c-1.563,0-2.832-1.269-2.832-2.831h10.328H24.5h10.328   C34.828,33.308,33.559,34.575,31.996,34.575z M32.654,29.812H24.5h-0.002h-8.154c-1.7,0-3.08-2.096-3.08-4.681h11.234H24.5h11.234   C35.734,27.717,34.354,29.812,32.654,29.812z M45.641,32.644c-0.062,0.172-0.156,0.344-0.285,0.518   c-0.127,0.173-0.291,0.347-0.506,0.514c-0.422,0.331-1.021,0.641-1.869,0.903l-3.055-0.005h-0.515h-0.515h-2.353l3.478-3.99h5.213   C45.234,30.583,46.02,31.568,45.641,32.644z M44.301,27.144c-1.492,0-6.371,0.356-6.371-1.188s4.879-4.41,6.371-4.41   c1.494,0,2.704,1.255,2.704,2.801C47.005,25.892,45.795,27.144,44.301,27.144z"/>
</g>

</svg>